<?xml version="1.0" encoding="utf-8"?>
<!-- Generator: Adobe Illustrator 24.3.0, SVG Export Plug-In . SVG Version: 6.00 Build 0)  -->
<svg version="1.1" xmlns="http://www.w3.org/2000/svg" xmlns:xlink="http://www.w3.org/1999/xlink" x="0px" y="0px"
	 viewBox="0 0 7950.18 11602.08" style="enable-background:new 0 0 7950.18 11602.08;" xml:space="preserve">
<style type="text/css">
	.st0{fill:url(#SVGID_1_);}
	.st1{opacity:0.15;}
	.st2{fill:#FFFFFF;}
	.st3{fill:#A0AD4B;}
	.st4{fill:#8E9F4B;}
	.st5{fill:#FBE1BA;}
	.st6{fill:#AAA052;}
	.st7{fill:#462F3A;}
	.st8{fill:#F7DFB9;}
	.st9{opacity:0.13;fill:#231F20;}
	.st10{opacity:0.08;fill:#231F20;}
	.st11{fill:#F0AD69;}
	.st12{fill:#948A86;}
	.st13{fill:#857C79;}
	.st14{fill:#382830;}
	.st15{fill:#948E30;}
	.st16{fill:#827C2B;}
	.st17{opacity:0.16;}
	.st18{fill:#835353;}
	.st19{fill:#E6B88A;}
	.st20{fill:#9E6C4A;}
	.st21{fill:#B59067;}
	.st22{fill:#FBD5A2;}
	.st23{fill:#CC715E;}
	.st24{fill:#398F82;}
	.st25{fill:#287268;}
	.st26{fill:#47B3A3;}
	.st27{fill:#4D333B;}
	.st28{fill:#F0B65E;}
	.st29{fill:#452235;}
	.st30{fill:#2A212E;}
	.st31{opacity:0.27;fill:#DB7170;}
	.st32{fill:#F54A58;}
	.st33{opacity:0.27;fill:#945561;}
	.st34{fill:#BE4034;}
	.st35{fill:#F49E6A;}
	.st36{fill:#AC392F;}
	.st37{opacity:0.28;fill:#231F20;}
	.st38{fill:#862D25;}
	.st39{fill:#A8392E;}
	.st40{fill:#63221A;}
	.st41{fill:#FBB766;}
	.st42{fill:#FBD773;}
	.st43{opacity:0.3;fill:#835353;}
</style>
<g id="Layer_7">
	<g>
		
			<linearGradient id="SVGID_1_" gradientUnits="userSpaceOnUse" x1="5385.5542" y1="8489.8408" x2="5385.5542" y2="578.2932" gradientTransform="matrix(-1 0 0 1 9360.6445 0)">
			<stop  offset="0" style="stop-color:#D6FFFF"/>
			<stop  offset="0.3869" style="stop-color:#99EFFF"/>
			<stop  offset="0.8014" style="stop-color:#5EE0FF"/>
			<stop  offset="1" style="stop-color:#47DAFF"/>
		</linearGradient>
		<rect x="-38.79" y="-56.6" class="st0" width="8027.75" height="10220.12"/>
		<g class="st1">
			<rect x="-38.79" y="5830.66" class="st2" width="8027.75" height="699.61"/>
			<rect x="-38.79" y="6741.06" class="st2" width="8027.75" height="189.04"/>
			<rect x="-38.79" y="7459.35" class="st2" width="8027.75" height="189.04"/>
		</g>
		<rect x="-38.79" y="9930.92" class="st3" width="8027.75" height="232.6"/>
		<rect x="-38.79" y="9458.89" class="st4" width="8027.75" height="470.84"/>
		<rect x="-38.79" y="9929.16" class="st5" width="8027.75" height="234.36"/>
		<path class="st6" d="M997.45,8077.46c528.52,0,956.97,436.34,956.97,974.59H40.47C40.47,8513.8,468.93,8077.46,997.45,8077.46z"/>
		<g>
			<g>
				<path class="st6" d="M879.9,9110.41H-38.79v-522.67c77.04-26.01,161.07-40.46,249.17-40.46
					C580.15,8547.28,879.9,8799.4,879.9,9110.41z"/>
				<path class="st7" d="M7557.19,8206.95c166.22,0,317.7,77,431.78,203.35v580.62H6914.59
					C6914.59,8557.95,7202.3,8206.95,7557.19,8206.95z"/>
				<path class="st7" d="M2496.61,8326.39c360.38,0,652.52,297.52,652.52,664.53H1844.09
					C1844.09,8623.91,2136.24,8326.39,2496.61,8326.39z"/>
			</g>
			<g>
				<path class="st7" d="M4963.14,8429.95c280.38,0,507.67,251.16,507.67,560.97H4455.47
					C4455.47,8681.1,4682.76,8429.95,4963.14,8429.95z"/>
			</g>
			<path class="st7" d="M416.33,8961.48c34.23-116.14,141.49-200.98,268.71-200.98c45.93,0,89.15,11.26,127.41,30.85
				c42.59-123.78,159.76-212.86,298-212.86c124.13,0,231.21,71.9,282.67,176.16c40.21-18.59,84.83-29.25,132.03-29.25
				c54.98,0,106.63,14.13,151.64,38.86c66.52-106.33,184.33-177.27,319-177.27c151.21,0,281.24,89.37,341.09,218
				c66.57-59.48,154.13-95.95,250.43-95.95c131.66,0,247.36,67.71,314.63,170.08c53.67-29.46,115.26-46.27,180.8-46.27
				c120.25,0,227.08,56.59,295.98,144.37c28.83-124.12,139.86-216.71,272.76-216.71c45.93,0,89.15,11.26,127.4,30.85
				c42.59-123.78,159.77-212.86,298.01-212.86c124.14,0,231.2,71.9,282.66,176.16c40.21-18.59,84.83-29.25,132.04-29.25
				c73.84,0,141.59,25.57,195.34,68.07c56.28-52.24,131.43-84.44,214.27-84.44c162.86,0,296.83,123.47,313.56,281.9H-38.79v-111.25
				c52.37-27.64,111.95-43.47,175.3-43.47C247.76,8836.2,347.42,8884.75,416.33,8961.48z"/>
			<path class="st7" d="M5547.34,8770.84c49.74,0,96.56,12.2,137.99,33.41c46.13-134.06,173.04-230.55,322.76-230.55
				c134.44,0,250.41,77.87,306.14,190.79c43.55-20.13,91.88-31.68,143-31.68c59.55,0,115.5,15.3,164.23,42.08
				c72.04-115.16,199.64-192,345.5-192c163.78,0,304.61,96.79,369.43,236.11c72.1-64.42,166.94-103.92,271.23-103.92
				c142.59,0,267.9,73.33,340.76,184.21c13.09-7.19,26.68-13.57,40.59-19.31v110.94H5255.69
				C5291.98,8863.91,5408.67,8770.84,5547.34,8770.84z"/>
		</g>
		<rect x="-38.79" y="8990.63" class="st2" width="8027.75" height="356.58"/>
		<rect x="-38.79" y="8990.92" class="st7" width="8027.75" height="281.9"/>
		<rect x="-38.79" y="9324.42" class="st7" width="8027.75" height="134.47"/>
		<rect x="3222.46" y="8991.05" class="st2" width="4766.51" height="266.15"/>
		<rect x="3222.46" y="9167.25" class="st8" width="4766.51" height="105.57"/>
		<rect x="3222.46" y="9084.22" class="st8" width="4766.51" height="23.28"/>
		<g>
			<g>
				<rect x="4258.46" y="7734.34" class="st6" width="951.98" height="1538.49"/>
				<g>
					<g>
						<rect x="4258.46" y="9254.11" class="st8" width="951.98" height="18.71"/>
						<rect x="4258.46" y="9134.14" class="st8" width="951.98" height="18.71"/>
						<rect x="4258.46" y="9014.18" class="st8" width="951.98" height="18.71"/>
						<rect x="4258.46" y="8894.21" class="st8" width="951.98" height="18.71"/>
						<rect x="4258.46" y="8774.24" class="st8" width="951.98" height="18.71"/>
						<rect x="4258.46" y="8654.27" class="st8" width="951.98" height="18.71"/>
						<rect x="4258.46" y="8534.3" class="st8" width="951.98" height="18.71"/>
						<rect x="4258.46" y="8414.34" class="st8" width="951.98" height="18.71"/>
						<rect x="4258.46" y="8294.37" class="st8" width="951.98" height="18.71"/>
						<rect x="4258.46" y="8174.4" class="st8" width="951.98" height="18.71"/>
						<rect x="4258.46" y="8054.43" class="st8" width="951.98" height="18.71"/>
						<rect x="4258.46" y="7934.46" class="st8" width="951.98" height="18.71"/>
						<rect x="4258.46" y="7814.5" class="st8" width="951.98" height="18.71"/>
					</g>
				</g>
				<g>
					<rect x="4207.78" y="9240.54" class="st6" width="50.63" height="17.28"/>
					<rect x="4207.78" y="9129.79" class="st6" width="50.63" height="17.28"/>
					<rect x="4207.78" y="9019.02" class="st6" width="50.63" height="17.28"/>
					<rect x="4207.78" y="8908.26" class="st6" width="50.63" height="17.28"/>
					<rect x="4207.78" y="8797.5" class="st6" width="50.63" height="17.28"/>
					<rect x="4207.78" y="8686.74" class="st6" width="50.63" height="17.28"/>
					<rect x="4207.78" y="8575.98" class="st6" width="50.63" height="17.28"/>
					<rect x="4207.78" y="8465.22" class="st6" width="50.63" height="17.28"/>
					<rect x="4207.78" y="8354.46" class="st6" width="50.63" height="17.28"/>
					<rect x="4207.78" y="8243.7" class="st6" width="50.63" height="17.28"/>
					<rect x="4207.78" y="8132.94" class="st6" width="50.63" height="17.28"/>
					<rect x="4207.78" y="8022.18" class="st6" width="50.63" height="17.28"/>
				</g>
				<rect x="4095.95" y="7973.93" class="st8" width="112.18" height="1298.89"/>
				<rect x="4095.95" y="7973.93" class="st9" width="56.09" height="1298.89"/>
				<rect x="4258.46" y="7734.34" class="st10" width="262.64" height="1538.49"/>
				<rect x="4246.1" y="7717.99" class="st6" width="976.4" height="19.03"/>
				<rect x="4103.96" y="7961.21" class="st6" width="96.16" height="12.72"/>
				<rect x="4095.95" y="7938.79" class="st8" width="112.18" height="22.42"/>
			</g>
			<polygon class="st8" points="5210.45,7717.99 4258.19,7717.99 4734.45,7482.23 			"/>
			<polygon class="st10" points="4521.1,7717.99 4258.19,7717.99 4734.45,7482.23 			"/>
		</g>
		<g>
			<g>
				<g>
					<rect x="5485.17" y="8036.25" class="st7" width="812.21" height="763.06"/>
					<polygon class="st7" points="6297.38,8036.25 5485.17,8036.25 5891.27,7637.67 					"/>
					<rect x="6297.38" y="8036.25" class="st11" width="495.73" height="763.06"/>
					<polygon class="st8" points="6793.11,8036.25 6297.38,8036.25 5892.52,7637.67 6388.26,7637.67 					"/>
				</g>
			</g>
			<rect x="5844.1" y="7853.07" class="st7" width="65.68" height="184.48"/>
			<rect x="6391.62" y="8131.01" class="st7" width="65.68" height="184.48"/>
		</g>
		<path class="st7" d="M4894.27,8719.31c264.27,0,478.51,247.82,478.51,553.51h-957.03
			C4415.75,8967.13,4629.99,8719.31,4894.27,8719.31z"/>
		<g>
			<path class="st11" d="M4974.97,8905.35c237.32,0,429.7,164.44,429.7,367.28h-859.4
				C4545.27,9069.79,4737.66,8905.35,4974.97,8905.35z"/>
			<g>
				<g>
					<path class="st8" d="M4974.97,8960.39c237.32,0,429.7,139.8,429.7,312.25h-859.4
						C4545.27,9100.18,4737.66,8960.39,4974.97,8960.39z"/>
				</g>
			</g>
			<g>
				<path class="st11" d="M4974.97,9066.69c237.32,0,429.7,92.2,429.7,205.94h-859.4
					C4545.27,9158.89,4737.66,9066.69,4974.97,9066.69z"/>
			</g>
			<g>
				<g>
					<path class="st8" d="M4974.97,9155.44c237.32,0,429.7,52.47,429.7,117.19h-859.4
						C4545.27,9207.91,4737.66,9155.44,4974.97,9155.44z"/>
				</g>
			</g>
		</g>
		<g>
			<g>
				<rect x="305" y="9021.07" class="st7" width="324.13" height="251.94"/>
				<rect x="305" y="9021.07" class="st7" width="324.13" height="61.63"/>
				<polygon class="st7" points="701.91,9021.02 305.35,9021.02 138.25,8903.51 534.94,8903.51 				"/>
				<rect x="-38.79" y="8944.49" class="st2" width="343.79" height="328.52"/>
				<polygon class="st11" points="105.74,8748.31 305,8944.49 -38.79,8944.49 -38.79,8748.31 				"/>
				<rect x="137.82" y="9043.36" class="st7" width="75.88" height="229.65"/>
				<rect x="-2.01" y="9047.86" class="st7" width="47.76" height="101.17"/>
			</g>
			<rect x="350.51" y="9021" class="st2" width="17.17" height="252"/>
			<rect x="461.92" y="9021.03" class="st2" width="17.16" height="252"/>
			<rect x="573.33" y="9021.05" class="st2" width="17.17" height="251.99"/>
			<rect x="684.75" y="9021.08" class="st2" width="17.17" height="252"/>
		</g>
		<g>
			<g>
				<rect x="709.78" y="8605.6" class="st7" width="812.21" height="667.48"/>
				<polygon class="st7" points="1521.99,8605.6 709.78,8605.6 1115.88,8207.01 				"/>
				<rect x="1521.99" y="8605.6" class="st11" width="1212.63" height="667.48"/>
				<polygon class="st8" points="2734.62,8605.6 1521.99,8605.6 1117.14,8207.01 2329.77,8207.01 				"/>
			</g>
		</g>
		<rect x="1098.08" y="8346.24" class="st7" width="35.82" height="112.84"/>
		<rect x="837.52" y="8705.48" class="st7" width="35.82" height="112.84"/>
		<rect x="1324.96" y="8716.29" class="st7" width="35.82" height="112.84"/>
		<rect x="988.8" y="8936.6" class="st7" width="264.36" height="336.47"/>
		<g>
			<path class="st7" d="M2168.43,7621.22c53.65,0,97.15,621.26,97.15,1387.61h-194.29
				C2071.28,8242.48,2114.77,7621.22,2168.43,7621.22z"/>
		</g>
		<g>
			<path class="st7" d="M2481.51,7653.65c58.29,0,105.54,578.8,105.54,1292.78h-211.09
				C2375.96,8232.45,2423.21,7653.65,2481.51,7653.65z"/>
		</g>
		<g>
			<path class="st11" d="M1536.02,8860.97c266.11,0,481.84,184.39,481.84,411.85h-963.68
				C1054.18,9045.36,1269.91,8860.97,1536.02,8860.97z"/>
			<g>
				<g>
					<path class="st8" d="M1536.02,8922.69c266.11,0,481.84,156.76,481.84,350.14h-963.68
						C1054.18,9079.45,1269.91,8922.69,1536.02,8922.69z"/>
				</g>
			</g>
			<g>
				<path class="st11" d="M1536.02,9041.89c266.11,0,481.84,103.39,481.84,230.93h-963.68
					C1054.18,9145.28,1269.91,9041.89,1536.02,9041.89z"/>
			</g>
			<g>
				<g>
					<path class="st8" d="M1536.02,9141.41c266.11,0,481.84,58.83,481.84,131.41h-963.68
						C1054.18,9200.25,1269.91,9141.41,1536.02,9141.41z"/>
				</g>
			</g>
		</g>
		<path class="st7" d="M2290.64,8634.71c446.17,0,807.87,285.85,807.87,638.45H1482.76
			C1482.76,8920.56,1844.46,8634.71,2290.64,8634.71z"/>
		<g>
			<g>
				<g>
					<rect x="-38.79" y="9536.65" class="st2" width="2520.91" height="59.48"/>
					<rect x="-38.79" y="9825.39" class="st2" width="2520.91" height="40.33"/>
					<rect x="-38.79" y="9715.07" class="st2" width="2520.91" height="40.34"/>
					<g>
						<rect x="537.62" y="9536.65" class="st2" width="53.82" height="393.33"/>
						<rect x="1167.85" y="9536.65" class="st2" width="53.82" height="393.33"/>
						<rect x="1798.08" y="9536.65" class="st2" width="53.82" height="393.33"/>
						<rect x="2428.3" y="9536.65" class="st2" width="53.82" height="393.33"/>
					</g>
				</g>
			</g>
			<g>
				<g>
					<rect x="2428.3" y="9536.65" class="st2" width="4465.42" height="59.48"/>
					<rect x="2428.3" y="9825.39" class="st2" width="4465.42" height="40.33"/>
					<rect x="2428.3" y="9715.07" class="st2" width="4465.42" height="40.34"/>
					<g>
						<rect x="2428.3" y="9536.65" class="st2" width="53.82" height="393.33"/>
						<rect x="3058.53" y="9536.65" class="st2" width="53.82" height="393.33"/>
						<rect x="3688.76" y="9536.65" class="st2" width="53.83" height="393.33"/>
						<rect x="4318.99" y="9536.65" class="st2" width="53.82" height="393.33"/>
						<rect x="4949.21" y="9536.65" class="st2" width="53.83" height="393.33"/>
						<rect x="5579.44" y="9536.65" class="st2" width="53.82" height="393.33"/>
						<rect x="6209.67" y="9536.65" class="st2" width="53.82" height="393.33"/>
						<rect x="6839.9" y="9536.65" class="st2" width="53.82" height="393.33"/>
					</g>
				</g>
				<g>
					<rect x="6839.9" y="9536.65" class="st2" width="1149.07" height="59.48"/>
					<rect x="6839.9" y="9825.39" class="st2" width="1149.07" height="40.33"/>
					<rect x="6839.9" y="9715.07" class="st2" width="1149.07" height="40.34"/>
					<g>
						<rect x="6839.9" y="9536.65" class="st2" width="53.82" height="393.33"/>
						<rect x="7470.13" y="9536.65" class="st2" width="53.82" height="393.33"/>
					</g>
				</g>
			</g>
		</g>
		<g>
			<path class="st11" d="M2388.39,8905.88c237.32,0,429.7,164.44,429.7,367.28h-859.4
				C1958.69,9070.32,2151.07,8905.88,2388.39,8905.88z"/>
			<g>
				<g>
					<path class="st8" d="M2388.39,8960.92c237.32,0,429.7,139.8,429.7,312.25h-859.4
						C1958.69,9100.72,2151.07,8960.92,2388.39,8960.92z"/>
				</g>
			</g>
			<g>
				<path class="st11" d="M2388.39,9067.22c237.32,0,429.7,92.2,429.7,205.94h-859.4
					C1958.69,9159.43,2151.07,9067.22,2388.39,9067.22z"/>
			</g>
			<g>
				<g>
					<path class="st8" d="M2388.39,9155.98c237.32,0,429.7,52.47,429.7,117.19h-859.4
						C1958.69,9208.44,2151.07,9155.98,2388.39,9155.98z"/>
				</g>
			</g>
		</g>
		<g>
			<path class="st11" d="M3092.32,9143.98c21.66-15.67,17.2-35.65,20.16-94.67c1.5-29.93,33.18-23.85,32.14-0.42
				c-1.04,23.43,23.78,17.36,23.78,35.59c0,17.12,0,170.6,0,189.12h-84.06l-0.37-85.83
				C3084.84,9163.26,3084.18,9149.86,3092.32,9143.98z"/>
			<g>
				<rect x="3128.93" y="9060.61" class="st7" width="2.61" height="212.99"/>
			</g>
			<g>
				
					<rect x="3127.29" y="9084.69" transform="matrix(0.7975 -0.6033 0.6033 0.7975 -4845.1743 3734.925)" class="st7" width="29.14" height="2.6"/>
			</g>
			<g>
				
					<rect x="3123.17" y="9102.74" transform="matrix(0.692 -0.7219 0.7219 0.692 -5614.8291 5061.98)" class="st7" width="2.6" height="15.98"/>
			</g>
			<g>
				
					<rect x="3128.55" y="9142.3" transform="matrix(0.8952 -0.4456 0.4456 0.8952 -3744.8345 2359.0952)" class="st7" width="32.14" height="2.6"/>
			</g>
			<g>
				
					<rect x="3114.02" y="9152.33" transform="matrix(0.5356 -0.8445 0.8445 0.5356 -6297.0273 6889.3486)" class="st7" width="2.6" height="35.29"/>
			</g>
			<g>
				
					<rect x="3129.62" y="9193.08" transform="matrix(0.9594 -0.2822 0.2822 0.9594 -2466.6592 1260.9817)" class="st7" width="29.99" height="2.6"/>
			</g>
			<g>
				
					<rect x="3114.02" y="9209.04" transform="matrix(0.4566 -0.8897 0.8897 0.4566 -6515.0591 7784.9019)" class="st7" width="2.6" height="33.51"/>
			</g>
		</g>
		<g>
			<path class="st2" d="M3032.84,9176.25c16.27-11.77,12.92-26.77,15.14-71.1c1.13-22.48,24.92-17.92,24.14-0.31
				c-0.78,17.6,17.86,13.04,17.86,26.73c0,12.86,0,128.13,0,142.04h-63.14l-0.28-64.46
				C3027.23,9190.73,3026.73,9180.67,3032.84,9176.25z"/>
			<g>
				<rect x="3060.35" y="9113.63" class="st7" width="1.95" height="159.97"/>
			</g>
			<g>
				
					<rect x="3059.11" y="9131.72" transform="matrix(0.7976 -0.6032 0.6032 0.7976 -4887.5981 3700.6431)" class="st7" width="21.88" height="1.96"/>
			</g>
			<g>
				
					<rect x="3056.02" y="9145.28" transform="matrix(0.6922 -0.7217 0.7217 0.6922 -5663.6094 5023.0654)" class="st7" width="1.95" height="12"/>
			</g>
			<g>
				
					<rect x="3060.06" y="9174.99" transform="matrix(0.8952 -0.4456 0.4456 0.8952 -3767.2935 2330.6282)" class="st7" width="24.14" height="1.96"/>
			</g>
			<g>
				
					<rect x="3049.15" y="9182.52" transform="matrix(0.5353 -0.8447 0.8447 0.5353 -6349.8955 6849.4927)" class="st7" width="1.96" height="26.5"/>
			</g>
			<g>
				
					<rect x="3060.87" y="9213.13" transform="matrix(0.9594 -0.2822 0.2822 0.9594 -2475.0933 1241.2742)" class="st7" width="22.52" height="1.96"/>
			</g>
			<g>
				<polygon class="st7" points="3061.77,9242.57 3060.88,9244.31 3038.48,9232.82 3039.38,9231.08 				"/>
			</g>
		</g>
		<g>
			<g>
				<path class="st7" d="M3743.8,8881.27l21.53,2.77c-13.44,104.44-126.21,123.22-150.83,123.22c-1.12,0-2.05-0.04-2.78-0.11
					l2.07-21.61C3627.53,8986.54,3732.22,8971.2,3743.8,8881.27z"/>
			</g>
			<g>
				<path class="st7" d="M3524.44,8892.7l20.62-6.79c35.93,109.37-4.79,196.22-6.55,199.87l-9.79-4.7l-9.78-4.7l9.78,4.7l-9.79-4.69
					C3519.33,9075.57,3557.53,8993.44,3524.44,8892.7z"/>
			</g>
			<g>
				<path class="st7" d="M3593.61,9002.17c29.17-64.56,15.28-116.04,15.14-116.55l20.88-5.96c0.68,2.38,16.4,59.24-16.22,131.44
					c-42.59,94.25-145.75,97.34-150.12,97.42l-0.21-10.85l-0.21-10.85l0.21,10.85l-0.23-10.85
					C3466.66,9086.73,3556.76,9083.71,3593.61,9002.17z"/>
			</g>
			<path class="st7" d="M3504.63,8576.86c181.52,0,328.68,147.15,328.68,328.68h-657.35
				C3175.95,8724.01,3323.11,8576.86,3504.63,8576.86z"/>
			<g>
				<path class="st7" d="M3371.89,8916.35c0,44.94,42.88,99.65,43.32,100.2l-17.03,13.47c-1.96-2.47-48.01-61.27-48.01-113.67
					v-76.82h21.72V8916.35z"/>
			</g>
			<g>
				<path class="st7" d="M3133.15,8870.9l1.54,21.66c-9.23,0.66-18.21,0.97-26.93,0.97c-159.01,0-231.75-103.54-234.93-108.19
					l17.91-12.27C2893.83,8777.54,2968.31,8882.6,3133.15,8870.9z"/>
			</g>
			<g>
				<path class="st7" d="M3229.66,8905.55l-2.32,21.59c-5.13-0.55-126.49-14.96-197.5-142.65l18.97-10.56
					C3114.42,8891.9,3228.52,8905.43,3229.66,8905.55z"/>
			</g>
			<g>
				<path class="st7" d="M3307.25,8881.74c0,68.78,69.16,115.38,69.85,115.83l-11.98,18.11c-3.25-2.16-79.59-53.63-79.59-133.95
					v-109.76h21.72V8881.74z"/>
			</g>
			<g>
				<path class="st7" d="M3239.12,8886.18c0,57.75,46.98,104.74,104.74,104.74c73.71,0,133.69,59.97,133.69,133.68v149h-28.95v-149
					c0-57.75-46.99-104.74-104.74-104.74c-73.71,0-133.69-59.97-133.69-133.69v-86.66h28.95V8886.18z"/>
			</g>
			<g>
				<g>
					<path class="st7" d="M3191.77,8330.08c181.52,0,328.68,147.15,328.68,328.68H2863.1
						C2863.1,8477.23,3010.25,8330.08,3191.77,8330.08z"/>
					<path class="st7" d="M3564.81,8494.42c132.33,0,239.6,107.27,239.6,239.6H3325.2
						C3325.2,8601.69,3432.48,8494.42,3564.81,8494.42z"/>
				</g>
				<path class="st7" d="M3677.79,8505.51c130.17,0,235.69,105.52,235.69,235.69H3442.1
					C3442.1,8611.03,3547.62,8505.51,3677.79,8505.51z"/>
				<g>
					<path class="st6" d="M3118.59,8467.79c187.87,0,340.17,152.3,340.17,340.17h-680.33
						C2778.42,8620.08,2930.72,8467.79,3118.59,8467.79z"/>
					<path class="st6" d="M3494.68,8629.43c130.16,0,235.68,105.52,235.68,235.69h-471.37
						C3258.99,8734.95,3364.51,8629.43,3494.68,8629.43z"/>
				</g>
			</g>
		</g>
		<g>
			<path class="st7" d="M3746.13,9145.46c13.5,0,24.44,41.24,24.44,92.11h-48.87C3721.69,9186.69,3732.63,9145.46,3746.13,9145.46z"
				/>
			<path class="st7" d="M3696.89,9081.56c22.46,0,40.68,69.84,40.68,156h-81.36C3656.21,9151.41,3674.42,9081.56,3696.89,9081.56z"
				/>
			<rect x="3710.56" y="9237.56" class="st7" width="6.27" height="34.87"/>
		</g>
		<g>
			<rect x="3596.24" y="9244.11" class="st7" width="6.27" height="28.52"/>
			<path class="st7" d="M3587.5,9148.2c15.28,0,27.67,12.39,27.67,27.67v68.24h-55.34v-68.24
				C3559.83,9160.59,3572.21,9148.2,3587.5,9148.2z"/>
			<path class="st7" d="M3623,9183.98c9.58,0,17.35,7.77,17.35,17.35v42.79h-34.69v-42.79
				C3605.65,9191.75,3613.42,9183.98,3623,9183.98z"/>
		</g>
		<path class="st6" d="M6902.52,8554.54c342.95,0,620.97,321.59,620.97,718.29H6281.55
			C6281.55,8876.13,6559.57,8554.54,6902.52,8554.54z"/>
		<path class="st6" d="M7371.62,8865.94c202.79,0,367.19,182.17,367.19,406.89h-734.37
			C7004.43,9048.11,7168.83,8865.94,7371.62,8865.94z"/>
		<g>
			<g>
				<path class="st7" d="M6706.43,9215.44c5.46-25,14.46-48.74,26.41-70.58c1.72-3.13,3.47-6.22,5.32-9.27
					c13.84-23.08,31.08-43.89,51.04-61.75c2.57-2.33,5.25-4.64,7.93-6.87c21.36-17.69,45.54-32.11,71.74-42.52
					c3.2-1.31,6.42-2.51,9.69-3.64c26.27-9.27,54.4-14.53,83.7-15.08c1.72-0.07,3.44-0.07,5.15-0.07s3.43,0,5.15,0.07
					c29.29,0.55,57.42,5.8,83.66,15.08c3.26,1.13,6.53,2.33,9.72,3.64c26.2,10.41,50.38,24.83,71.74,42.52
					c2.68,2.23,5.36,4.53,7.93,6.87c19.95,17.86,37.19,38.67,51.04,61.75c1.86,3.06,3.6,6.15,5.32,9.27
					c11.95,21.84,20.95,45.57,26.41,70.58c0.79,3.54,1.47,7.11,2.09,10.68c2.68,15.18,4.09,30.77,4.09,46.71h-534.33
					c0-15.94,1.41-31.53,4.08-46.71C6704.95,9222.54,6705.64,9218.97,6706.43,9215.44z"/>
			</g>
			<g>
				<path class="st7" d="M6972.56,9005.73v267.1h-10.3v-267.1c1.72-0.07,3.44-0.07,5.15-0.07S6970.85,9005.66,6972.56,9005.73z"/>
			</g>
			<g>
				<path class="st7" d="M6946.09,9272.82h-10.68l-66.53-248.38c3.2-1.31,6.42-2.51,9.69-3.64L6946.09,9272.82z"/>
			</g>
			<g>
				<path class="st7" d="M6915.97,9272.82h-11.85l-114.92-198.99c2.57-2.33,5.25-4.64,7.93-6.87L6915.97,9272.82z"/>
			</g>
			<g>
				<path class="st7" d="M6875.41,9272.82h-14.56l-128-127.97c1.72-3.13,3.47-6.22,5.32-9.27L6875.41,9272.82z"/>
			</g>
			<g>
				<path class="st7" d="M6805.86,9272.82h-20.64l-80.88-46.71c0.62-3.57,1.31-7.14,2.1-10.68L6805.86,9272.82z"/>
			</g>
			<g>
				<path class="st7" d="M7065.95,9024.45l-66.56,248.38h-10.68l67.52-252.02C7059.49,9021.94,7062.75,9023.14,7065.95,9024.45z"/>
			</g>
			<g>
				<path class="st7" d="M7145.63,9073.83l-114.92,198.99h-11.88l118.86-205.86C7140.37,9069.2,7143.05,9071.5,7145.63,9073.83z"/>
			</g>
			<g>
				<path class="st7" d="M7201.98,9144.86l-128,127.97h-14.56l137.24-137.24C7198.52,9138.64,7200.27,9141.73,7201.98,9144.86z"/>
			</g>
			<g>
				<path class="st7" d="M7230.49,9226.12l-80.91,46.71h-20.61l99.43-57.39C7229.19,9218.97,7229.87,9222.54,7230.49,9226.12z"/>
			</g>
		</g>
		<g>
			<g>
				<g>
					<rect x="4885.34" y="8796.52" class="st7" width="812.21" height="476.3"/>
					<polygon class="st7" points="5697.55,8796.52 4885.34,8796.52 5291.45,8397.93 					"/>
					<rect x="5697.55" y="8796.52" class="st11" width="1212.63" height="476.3"/>
					<polygon class="st8" points="6910.19,8796.52 5697.55,8796.52 5292.7,8397.93 6505.34,8397.93 					"/>
				</g>
			</g>
			<rect x="5697.55" y="9158.63" class="st2" width="1212.63" height="114.19"/>
			<rect x="4885.34" y="9158.63" class="st11" width="812.21" height="114.19"/>
			<rect x="5058.11" y="8842.19" class="st7" width="427.05" height="430.64"/>
			<rect x="5058.11" y="8842.19" class="st11" width="44.93" height="430.64"/>
			<rect x="5058.11" y="9158.41" class="st8" width="44.93" height="114.42"/>
			<rect x="5827.4" y="8904.88" class="st7" width="52.74" height="144.67"/>
			<rect x="6015.48" y="8904.88" class="st7" width="52.74" height="144.67"/>
			<rect x="6203.55" y="8904.88" class="st7" width="52.74" height="144.67"/>
			<rect x="6391.62" y="8904.88" class="st7" width="52.74" height="144.67"/>
			<rect x="6579.7" y="8904.88" class="st7" width="52.74" height="144.67"/>
			<rect x="6767.77" y="8904.88" class="st7" width="52.74" height="144.67"/>
		</g>
	</g>
</g>
<g id="Layer_3">
	<rect x="-38.79" y="10081.5" class="st12" width="8027.75" height="1577.18"/>
	<rect x="-38.79" y="10081.5" class="st13" width="8027.75" height="760.4"/>
	<g>
		<path class="st14" d="M7988.97,420.15V952c-153.56-155.49-288.48-334.4-400.4-531.86H7988.97z"/>
		<g>
			<g>
				<path class="st15" d="M4343.74-54.35h3645.22v837.42H4274.09C4274.09,496.73,4298.09,216.81,4343.74-54.35z"/>
			</g>
			<g>
				<path class="st16" d="M5019.49-54.35h2969.48v837.42H4942.84C4942.84,495.87,4969.37,215.8,5019.49-54.35z"/>
			</g>
		</g>
		<g>
			<g>
				<path class="st15" d="M4222.9-54.35h3766.07v1274.03H4017.01C4017.01,770.69,4089.96,341.25,4222.9-54.35z"/>
			</g>
			<g>
				<path class="st16" d="M4947.54-54.35h3041.43v1274.03H4713.53C4713.53,766.39,4797.12,335.48,4947.54-54.35z"/>
			</g>
		</g>
		<g>
			<g>
				<path class="st15" d="M6220.03-54.35c189.37,375.13,297.74,810.14,297.74,1274.03H2030.41c0-463.89,108.37-898.9,297.74-1274.03
					H6220.03z"/>
			</g>
			<g>
				<path class="st16" d="M6593.36-54.35c216.17,363.42,342.57,801.85,342.57,1274.03H2948.05
					c0-472.18,126.41-910.61,342.57-1274.03H6593.36z"/>
			</g>
		</g>
		<path class="st14" d="M5422.49,1219.68h2566.48v1040.58c-217.66,81-450.02,124.93-691.46,124.93
			C6510.88,2385.19,5819.85,1920.74,5422.49,1219.68z"/>
		<path class="st14" d="M5394.7,2063.46c-569.47,0-1069.75-336.25-1357.42-843.78h2714.86
			C6464.46,1727.21,5964.18,2063.46,5394.7,2063.46z"/>
		<g>
			<g>
				<path class="st15" d="M5919.75,1535.54c747.77,0,1452.05,186.07,2069.21,514.3v3898.94H1506.52
					C1506.52,3511.42,3482.39,1535.54,5919.75,1535.54z"/>
			</g>
			<g>
				<path class="st16" d="M6300.46,1916.25c602.92,0,1174.86,132.43,1688.51,369.63v3662.91H2267.92
					C2267.92,3721.68,4073.35,1916.25,6300.46,1916.25z"/>
			</g>
		</g>
		<g>
			<g>
				<path class="st15" d="M7988.97,2740.93v3207.86h-2014.1C5974.86,4536.42,6797.25,3316.94,7988.97,2740.93z"/>
			</g>
			<g>
				<path class="st16" d="M7988.97,3451.51v2497.27h-1221.1C6767.87,4933.7,7245.96,4030.71,7988.97,3451.51z"/>
			</g>
		</g>
		<g>
			<g>
				<path class="st15" d="M6267.55,3394.27c663.23,0,1267.36,252.8,1721.42,667.27v1887.25H3713.03
					C3713.03,4537.97,4856.73,3394.27,6267.55,3394.27z"/>
			</g>
			<g>
				<path class="st16" d="M7027.98,3678.61c343.52,0,669.15,76.43,960.98,213.03v2057.15H4757.8
					C4757.8,4695,5774.19,3678.61,7027.98,3678.61z"/>
			</g>
		</g>
		<path class="st14" d="M7988.97,5948.79v276.52c-77.15-86.45-147.83-178.79-210.98-276.52H7988.97z"/>
		<path class="st14" d="M4379.26,7190.32c-955.28,0-1794.48-494.75-2277.04-1241.53h4554.08
			C6173.75,6695.56,5334.55,7190.32,4379.26,7190.32z"/>
		<path class="st14" d="M6200.86,5948.79h1788.11v719.84c-123.59,29.37-252.44,45.15-385.06,45.15
			C7015.28,6713.78,6498.2,6408.94,6200.86,5948.79z"/>
		<g>
			<path class="st14" d="M5703.21,8539.32c851.72,0,1542.18,690.45,1542.18,1542.18H4161.03
				C4161.03,9229.77,4851.49,8539.32,5703.21,8539.32z"/>
		</g>
		<g>
			<path class="st14" d="M7988.97,9181.78v899.71H7201.1C7201.1,9620.84,7544.31,9240.39,7988.97,9181.78z"/>
		</g>
		<rect x="5974.86" y="5948.79" class="st14" width="681.44" height="4132.71"/>
		<g>
			<g>
				<path class="st15" d="M6879.63,8736.01c460.43,0,866.77,231.32,1109.34,584.03v761.46H5534.14
					C5534.14,9338.4,6136.53,8736.01,6879.63,8736.01z"/>
			</g>
			<g>
				<path class="st16" d="M7029.39,8885.77c392.95,0,741.61,189.56,959.58,482.21v713.51H5833.66
					C5833.66,9421.11,6369.01,8885.77,7029.39,8885.77z"/>
			</g>
		</g>
		<g>
			<g>
				<path class="st15" d="M5644.69,9116.64c532.87,0,964.86,431.98,964.86,964.86H4679.82
					C4679.82,9548.63,5111.81,9116.64,5644.69,9116.64z"/>
			</g>
			<g>
				<path class="st16" d="M5931.91,9224.04c473.57,0,857.46,383.9,857.46,857.46H5074.44
					C5074.44,9607.94,5458.34,9224.04,5931.91,9224.04z"/>
			</g>
		</g>
		<g>
			
				<rect x="5559.93" y="6358.17" transform="matrix(0.557 -0.8305 0.8305 0.557 -3444.5869 7863.4629)" class="st14" width="178.13" height="1605.1"/>
		</g>
		<g>
			
				<rect x="5070.19" y="6468.7" transform="matrix(0.1394 -0.9902 0.9902 0.1394 -2699.4214 11313.4482)" class="st14" width="178.1" height="1482.15"/>
		</g>
		<g>
			
				<rect x="6083.29" y="7151.71" transform="matrix(0.6545 -0.756 0.756 0.6545 -3018.8193 7875.2139)" class="st14" width="2048.55" height="178.11"/>
		</g>
		<g>
			
				<rect x="6989.81" y="6387.16" transform="matrix(0.992 -0.1263 0.1263 0.992 -801.1238 948.6966)" class="st14" width="178.16" height="806.37"/>
		</g>
		<g>
			<rect x="7442.45" y="6764.83" class="st14" width="546.52" height="178.16"/>
		</g>
	</g>
	<g class="st17">
		<path class="st18" d="M6220.03,11658.33H5019.49h-71.95h-603.8H4222.9h-932.27h-962.47c-189.37-58.36-297.74-126.03-297.74-198.2
			h917.64h1068.96h20.26c123.23-33.82,285.5-62.75,475.49-84.78c-1747.48-91.38-3006.25-348.28-3006.25-650.93h595.71
			c482.56-116.17,1321.76-193.14,2277.04-193.14c11.48,0,22.93,0.02,34.38,0.04l-0.66-0.73l1425.96-31.2l135.93-14.18v-167.51
			c-88.19,2.44-178.96,3.71-271.65,3.71c-851.73,0-1542.18-107.41-1542.18-239.92h518.79h394.62h459.69h299.52h141.21h634.68h46.76
			h133.06h411.73h44.29h743.57v139.93c-31.7-0.65-62.96-1.52-93.54-2.67c-246.68,44.14-610.28,72.06-1015.8,72.06
			c-76.09,0-150.68-1-223.32-2.89v133.24l826.84,148.58h505.82v27.72h-351.59l46,8.27c104.72,0.77,206.84,3.06,305.59,6.71v1045.89
			H6593.36H6220.03z M5055.06,10544.52c81.8,3.27,162.11,7.12,240.73,11.52l203.69-21.25L5055.06,10544.52z M5974.86,10518.58
			l-69.44,7.24l0.09,0.09l-1.25,0.03l-409.17,42.68c170.01,11.98,330.68,26.6,479.78,43.55V10518.58z M7451.95,10606.48
			l-256.22-46.04l-44.71,54.65C7248.03,10610.85,7348.63,10607.94,7451.95,10606.48z M6656.31,10651.33
			c95.53-10.27,198.26-19.04,306.81-26.07l76.05-92.96l-382.85-68.8V10651.33z"/>
	</g>
</g>
<g id="Layer_4">
	<g>
		<g>
			<g>
				<g>
					<g>
						<path class="st19" d="M2731.98,2833.66l-736.54,80.02l19.55-147.2l27.21-204.16l437.59-148.14
							c64.03-21.68,133.23,14.31,152.26,79.17l58.6,199.72L2731.98,2833.66z"/>
					</g>
				</g>
				<g>
					<g>
						<polygon class="st20" points="2731.98,2833.66 1995.44,2913.69 2014.98,2766.49 2690.64,2693.08 						"/>
					</g>
				</g>
			</g>
			<ellipse class="st21" cx="2403.15" cy="2995.75" rx="899.71" ry="173.12"/>
			<g>
				<g>
					<g>
						<g>
							<g>
								<g>
									<path class="st22" d="M2593.64,4065.2l551.48-233.18l-96.61-233.33c-162.62,85.12-350.07,151.45-463.04,392.89
										L2593.64,4065.2z"/>
								</g>
							</g>
						</g>
					</g>
					<polygon class="st23" points="3134.08,3805.36 3065.01,3638.53 3382.22,3507.19 3478.52,3662.75 					"/>
					<g>
						<g>
							<g>
								<g>
									<g>
										<path class="st23" d="M3900.34,3359.69l-51.45-87.77l-475.8,229.65c-44.7,21.57-58.01,81.77-28.78,130.15l0,0
											c28.72,47.54,86.55,63.73,126.24,35.35L3900.34,3359.69z"/>
									</g>
								</g>
							</g>
						</g>
					</g>
					<g>
						<path class="st22" d="M2020.96,4227.64c14.83,412.09,17.87,464.36,17.87,464.36h725.62v-929.53l-288.56-130.79h-209.43
							l-113.41,40.13l-69.05,24.37l-121.04,42.89L2020.96,4227.64z"/>
					</g>
					<polygon class="st24" points="2109.64,4957.24 2764.38,4957.24 2764.38,4082.25 2190.92,4082.25 					"/>
					<path class="st24" d="M2084,3696.18L2197.09,4201c4.39,19.66,23.88,32.01,43.54,27.62c19.5-4.39,31.85-23.88,27.46-43.38
						l-115.03-513.43L2084,3696.18z"/>
					<path class="st24" d="M2764.38,4957.25l-1.16,46.85l-0.83,34.21l-4.38,176.42l-9.26,1797.03h-211.5l-166.27-1595.08
						l-285.79,1595.08h-195.37c0,0-54.58-149.98-54.58-1062.26c0-250.05,8.35-482.5,54.29-742.79
						c9.59-54.7,20.91-110.73,34.13-168.41c2.56-11.32,5.29-22.72,8.02-34.21c23.63-98.5,52.97-201.88,89.24-312.27h743.37
						L2764.38,4957.25z"/>
					<path class="st25" d="M2144.55,5038.31v41.07c0,70.32-57.02,127.34-127.42,127.34h-127.59c9.59-54.7,20.91-110.73,34.13-168.41
						H2144.55z"/>
					<path class="st25" d="M2763.23,5004.1l-0.83,34.21h-838.73c2.56-11.32,5.29-22.72,8.02-34.21H2763.23z"/>
					<polygon class="st26" points="1849.8,6835.37 2130.56,6835.37 2094.19,7011.74 1867.99,7011.74 					"/>
					<path class="st25" d="M2419.58,4804.22h344.36v-501.07h-490.87v354.55C2273.06,4738.62,2338.66,4804.22,2419.58,4804.22z"/>
					<g>
						<g>
							<g>
								<g>
									<g>
										<g>
											<g>
												<path class="st27" d="M1960.85,6996.92c47.57,0.01,86.13,38.58,86.12,86.15l-0.01,64.56h-172.28l0.01-64.59
													C1874.71,7035.47,1913.28,6996.91,1960.85,6996.92z"/>
											</g>
										</g>
									</g>
								</g>
							</g>
						</g>
					</g>
					<polygon class="st26" points="2448.81,6835.37 2798.36,6835.37 2798.36,7011.74 2466.99,7011.74 					"/>
					<g>
						<g>
							<g>
								<g>
									<g>
										<g>
											<g>
												<path class="st27" d="M2915.55,7147.63h-348.33l-10.4-104.96c-2.65-26.75,18.37-49.95,45.25-49.95l153.79,0.03
													C2842.48,6992.76,2912.83,7061.67,2915.55,7147.63z"/>
											</g>
										</g>
									</g>
								</g>
							</g>
						</g>
					</g>
					<path class="st25" d="M2536.58,5038.31h-112.54v336.8h33.32c43.75,0,79.22-35.47,79.22-79.22V5038.31z"/>
					<path class="st25" d="M2762.4,5038.31l-4.38,176.42c-11.24-1.32-21.4-6.45-29-14.05c-8.92-8.92-14.46-21.24-14.46-34.87v-127.5
						H2762.4z"/>
					<path class="st24" d="M2728.01,4237.9L2728.01,4237.9c20.09,0,36.37-16.28,36.37-36.37v-439.09l-72.74-32.97v472.07
						C2691.65,4221.62,2707.93,4237.9,2728.01,4237.9z"/>
					<circle class="st28" cx="2728.01" cy="4142.87" r="22.34"/>
					<circle class="st28" cx="2231.44" cy="4131.08" r="22.34"/>
				</g>
			</g>
			<g>
				<g>
					<g>
						<g>
							<path class="st22" d="M2034.08,3718.46l-4.48,598.73h-252.54c16.43-182.81,6.01-381.38,185.88-578.12L2034.08,3718.46z"/>
						</g>
					</g>
				</g>
			</g>
			<g>
				<g>
					<g>
						<g>
							<g>
								<path class="st23" d="M2423.01,4685.74l-0.41,95.1c0,0-84.67,12.41-410.48,49.48c-96.41,10.97-180.23-62.52-180.15-169.72
									L2423.01,4685.74z"/>
							</g>
						</g>
					</g>
				</g>
			</g>
			<g>
				
					<ellipse transform="matrix(0.7071 -0.7071 0.7071 0.7071 -1799.5646 2472.7515)" class="st29" cx="2085.09" cy="3408.64" rx="208.04" ry="208.04"/>
				<path class="st29" d="M2057.73,3092.09c0,4.65,0.08,9.39,0.33,14.04c7.31,188.47,162.47,338.99,352.69,338.99
					c194.95,0,353.02-158.07,353.02-353.02c0-2.66,0-5.23-0.08-7.89c-0.75-33.72-6.23-66.37-15.78-97.19
					c-32.06-4.82-69.03-8.89-111.39-11.63c-54.07-3.49-117.04-4.82-190.05-2.74c-39.54,1.08-76.17,2.66-110.06,4.82
					c-18.69,1-36.55,2.33-53.58,3.66c-7.72,0.58-15.28,1.25-22.68,1.91c-3.49,0.33-6.9,0.66-10.3,0.91
					c-7.73,0.83-15.28,1.49-22.68,2.24c-66.95,6.98-119.36,15.53-159.9,24.09C2061.06,3036.52,2057.73,3063.93,2057.73,3092.09z"/>
				<g>
					<g>
						<g>
							<g>
								<g>
									<g>
										<g>
											<path class="st23" d="M2184.56,3171.14h7.67c20.45,0,37.02,16.58,37.02,37.02v131.55h-34.73
												c-25.95,0-46.99-21.04-46.99-46.99v-84.56C2147.54,3187.72,2164.12,3171.14,2184.56,3171.14z"/>
										</g>
									</g>
								</g>
							</g>
						</g>
					</g>
				</g>
				<g>
					<g>
						<g>
							<g>
								<g>
									<g>
										<g>
											<g>
												<g>
													<g>
														<g>
															<path class="st23" d="M2525.25,3647.15c0,0,9.08,59.71-102.21,59.71c-111.28,0-199.63-59.71-199.63-59.71v-319.37
																h301.83V3647.15z"/>
														</g>
													</g>
												</g>
											</g>
										</g>
									</g>
								</g>
							</g>
						</g>
					</g>
				</g>
				<g>
					<g>
						<g>
							<g>
								<g>
									<g>
										<g>
											<g>
												<g>
													<g>
														<g>
															<path class="st29" d="M2525.25,3628.49v-208.21h-273.41C2251.84,3420.27,2300.17,3604.33,2525.25,3628.49z"/>
														</g>
													</g>
												</g>
											</g>
										</g>
									</g>
								</g>
							</g>
						</g>
					</g>
				</g>
				<g>
					<g>
						<g>
							<g>
								<g>
									<g>
										<path class="st23" d="M2694.98,3129.75v209.31c0,64.32-26.03,122.56-68.2,164.67c-42.17,42.11-100.36,68.2-164.67,68.2
											c-128.57,0-232.87-104.25-232.87-232.87v-209.31c0-34.16,7.36-66.67,20.61-95.94c3.12-6.89,6.6-13.55,10.31-20.08
											c6.65-11.48,14.19-22.38,22.68-32.57c17.08-1.36,34.93-2.65,53.59-3.71c33.92-2.12,70.56-3.71,110.08-4.83
											c72.97-2,135.93-0.71,190,2.77C2672.89,3016.49,2694.98,3070.56,2694.98,3129.75z"/>
									</g>
								</g>
							</g>
						</g>
					</g>
				</g>
				<g>
					<g>
						<g>
							<g>
								<g>
									<path class="st29" d="M2584.79,3265.25l25.79-0.03c0.04,36.74-29.82,66.66-66.56,66.7l-0.03-25.79
										C2566.51,3306.11,2584.81,3287.77,2584.79,3265.25z"/>
								</g>
							</g>
							<g>
								<g>
									<path class="st29" d="M2440.18,3092.11c22.76-0.02,41.23,17.74,41.25,39.67l-141.3-20.55c0,0,18.43-19.04,41.19-19.07
										L2440.18,3092.11z"/>
								</g>
							</g>
							<g>
								<g>
									<path class="st30" d="M2626.47,3091.92l31.73-0.03c12.27-0.01,22.24,19,22.24,19l-76.14,20.77
										C2604.27,3109.72,2614.2,3091.93,2626.47,3091.92z"/>
								</g>
							</g>
						</g>
						<g>
							<path class="st29" d="M2566.91,3482.06c-52.37,79.63-90.52-0.5-90.52-0.5C2499.28,3496.71,2539.44,3493.3,2566.91,3482.06z"
								/>
						</g>
					</g>
					<path class="st2" d="M2524.6,3466.54c-49.11,0-88.93-39.81-88.93-88.93h177.86C2613.53,3426.72,2573.72,3466.54,2524.6,3466.54
						z"/>
					<path class="st29" d="M2435.68,3176.6c16.88,0,30.56,16.83,30.56,37.6c0,20.77-13.68,37.6-30.56,37.6
						c-16.87,0-30.55-16.84-30.55-37.6C2405.12,3193.44,2418.8,3176.6,2435.68,3176.6z"/>
					<path class="st29" d="M2426.67,3171.86c35.45,2.62,36.53,42.34,36.53,42.34l-80.84-12.67
						C2382.36,3201.53,2396.63,3169.64,2426.67,3171.86z"/>
					<path class="st30" d="M2645.76,3171.86c21.8-2.22,32.17,29.67,32.17,29.67l-58.69,12.67
						C2619.24,3214.2,2620.03,3174.48,2645.76,3171.86z"/>
					<path class="st30" d="M2641.85,3176.6c12.48,0,22.6,16.83,22.6,37.6c0,20.77-10.12,37.6-22.6,37.6
						c-12.48,0-22.6-16.84-22.6-37.6C2619.24,3193.44,2629.36,3176.6,2641.85,3176.6z"/>
				</g>
				<g>
					<g>
						<g>
							<g>
								<g>
									<path class="st29" d="M2260.15,2983.04v272.39h-32.92v-269.21c7.36-0.76,14.9-1.47,22.62-2.24
										C2253.26,2983.68,2256.68,2983.39,2260.15,2983.04z"/>
								</g>
							</g>
						</g>
					</g>
				</g>
				<g>
					<g>
						<g>
							<g>
								<g>
									<path class="st29" d="M2336.42,2977.44v62.72c0,25.86-20.97,46.82-46.82,46.82h-39.75v-103.01
										c3.42-0.29,6.83-0.59,10.31-0.94c7.42-0.65,14.96-1.3,22.68-1.88C2299.91,2979.8,2317.75,2978.5,2336.42,2977.44z"/>
								</g>
							</g>
						</g>
					</g>
				</g>
			</g>
			<path class="st31" d="M2057.73,3092.09c0,4.65,0.08,9.39,0.33,14.04c78.16-17.94,209.74-40.2,384.51-41.37
				c143.95-1,250.19,8.97,321.13,19.44c-0.75-33.72-6.23-66.37-15.78-97.19c-32.06-4.82-69.03-8.89-111.39-11.63
				c-54.07-3.49-117.04-4.82-190.05-2.74c-39.54,1.08-76.17,2.66-110.06,4.82c-18.69,1-36.55,2.33-53.58,3.66
				c-7.72,0.58-15.28,1.25-22.68,1.91c-3.49,0.33-6.9,0.66-10.3,0.91c-7.73,0.83-15.28,1.49-22.68,2.24
				c-66.95,6.98-119.36,15.53-159.9,24.09C2061.06,3036.52,2057.73,3063.93,2057.73,3092.09z"/>
			<g>
				<g>
					<path class="st23" d="M3929.86,3412.39l108.63-54.58l-34.47-85.16c-16.87-41.66-62.47-59.88-101.19-40.43l-90.91,45.67
						c-27.86,14-40.31,47.04-28.61,75.94l0,0C3807.73,3414.18,3873.78,3440.56,3929.86,3412.39z"/>
				</g>
			</g>
			
				<ellipse transform="matrix(0.7071 -0.7071 0.7071 0.7071 -2492.3225 3186.0278)" class="st32" cx="2599.71" cy="4601.51" rx="118.93" ry="119.36"/>
			
				<ellipse transform="matrix(0.7073 -0.7069 0.7069 0.7073 -1134.8425 3802.6121)" class="st32" cx="4024.81" cy="3271.8" rx="118.93" ry="119.36"/>
			<g>
				<g>
					<path class="st23" d="M2628.57,4601.51h-157.46c-52.18,0-94.48,42.3-94.48,94.48v19.63c0,48.93,39.66,88.59,88.59,88.59h39.24
						c68.54,0,124.11-55.56,124.11-124.11V4601.51z"/>
				</g>
			</g>
			<polygon class="st23" points="2038.08,4317.19 1831.97,4317.19 1831.97,4660.52 2038.08,4689.99 			"/>
		</g>
		<path class="st33" d="M2063.63,3156.14c2.74,15.28,6.64,30.15,11.3,44.69c-110.14,5.32-197.86,96.35-197.86,207.83
			c0,93.11,61.14,171.86,145.53,198.44c19.69,6.23,40.7,9.55,62.46,9.55c4.65,0,9.22-0.17,13.71-0.5
			c47.76-3.07,91.04-22.26,124.68-52.16v82.9l-70.36,24.92l-69.11,24.34L1963.13,3739l-0.17,0.08
			c-179.92,196.7-169.45,395.3-185.9,578.13h54.91v343.31l0.75,0.08h-0.75c-0.08,94.28,64.71,162.39,145.94,170.03
			c-17.36,59.64-32.81,117.37-46.18,173.44c-2.74,11.55-5.48,22.93-8.06,34.22c-13.21,57.73-24.5,113.72-34.14,168.46
			c-45.93,260.24-54.24,492.74-54.24,742.76c0,469.15,14.37,736.62,28.41,885.88h-13.87l18.19,176.35h101.5l36.38-176.35h-13.79
			l254.18-1418.74l45.85,439.91l78.83-439.91l147.94,1418.74h-70.11l18.19,176.35h98.1c-6.15,8.64-9.39,19.44-8.31,30.9
			l10.47,104.99h223.61c-2.24-71.35-51.17-130.74-117.2-149.02V6835.4h-48.68l8.39-1620.67l4.32-176.43l0.83-34.22l1.16-46.85V4692
			h0.08v-698.99l380.69-160.98l-11.05-26.66l301.77-124.93c12.29-1.5,24.09-5.81,34.72-13.37l3.32-2.41l4.65-1.91l-0.66-1
			l352.94-252.35c29.49,17.11,65.95,19.6,99.01,2.99l55.9-28.08c15.86,5.48,33.14,7.81,51.25,6.06
			c55.74-5.57,100.84-50.67,106.41-106.41c4.74-47.93-18.94-90.79-56.23-113.63c-21.68,13.37-38.79,33.56-48.34,57.4
			c-3.82,1.25-7.64,2.66-11.3,4.49l-90.96,45.69c-10.96,5.48-19.44,13.95-25.17,24.01l-413.66,199.6
			c-9.97,4.9-18.36,11.71-25.09,19.85l-283,117.12l-16.45-39.79c-92.86,48.59-193.87,91.12-284.41,163.64l-72.43-32.89l-4.57-2.08
			c-16.11,10.88-32.06,22.51-47.68,34.97l-72.43-32.89l-166.46-75.42c0.42-4.15,0-6.89,0-6.89v-83.98
			c38.96-10.88,73.76-31.65,101.59-59.39c42.11-42.11,68.2-100.43,68.2-164.72v-37.63c31.4-42.53,53.41-92.37,63.13-146.53
			c320.38-26.5,544.74-87.8,544.74-159.15c0-73.6-238.98-136.56-575.8-161.56l4.9-0.5l-41.28-140.63l-58.64-199.69
			c-9.05-30.82-29.41-55.16-55.16-69.86l-410.01,138.8l-27.25,204.17l-9.8,74.01c-297.21,28.24-501.71,87.14-501.71,155.25
			C1503.44,3068.25,1735.03,3130.3,2063.63,3156.14z"/>
	</g>
	<path class="st18" d="M2128.62,7021.54c20.51,14.61,33.95,38.61,33.88,65.73v60.37h-67.83v-60.45
		C2094.67,7060.08,2108.11,7036.15,2128.62,7021.54z"/>
	<path class="st18" d="M2128.62,7021.54c20.51,14.61,33.95,38.61,33.88,65.73v60.37h-67.83v-60.45
		C2094.67,7060.08,2108.11,7036.15,2128.62,7021.54z"/>
	<g>
		<rect x="2705.7" y="9287.85" class="st34" width="787.34" height="141.21"/>
		<polygon class="st35" points="3589.7,10081.5 3491.74,10081.5 3058.65,7263.17 3156.61,7263.17 		"/>
		<polygon class="st35" points="2013.02,7263.17 1589.34,10081.5 1431.52,10081.5 1855.2,7263.17 		"/>
		<polygon class="st36" points="2013.02,7263.17 1589.34,10081.5 1491.39,10081.5 1915.06,7263.17 		"/>
		<rect x="1901.46" y="7535.31" class="st34" width="1061.96" height="141.21"/>
		<rect x="1822.55" y="8050.51" class="st34" width="1061.96" height="141.21"/>
		<rect x="1749.62" y="8534.72" class="st34" width="1061.96" height="141.21"/>
		<rect x="1666.58" y="9050.26" class="st34" width="1061.96" height="141.21"/>
		<rect x="1606.83" y="9556.72" class="st34" width="1061.96" height="141.21"/>
		<polygon class="st36" points="3638.68,10081.5 3540.72,10081.5 3107.63,7263.17 3205.59,7263.17 		"/>
		<polygon class="st37" points="2668.79,9556.72 2668.79,9627.07 2658.12,9697.93 2500.31,9697.93 2521.53,9556.72 		"/>
		<polygon class="st37" points="2728.54,9050.26 2728.54,9191.46 2576.49,9191.46 2597.72,9050.26 		"/>
		<polygon class="st37" points="2811.59,8534.72 2811.59,8675.93 2653.99,8675.93 2675.21,8534.72 		"/>
		<polygon class="st37" points="2884.51,8050.51 2884.51,8191.72 2726.69,8191.72 2748.02,8050.51 		"/>
		<polygon class="st37" points="2963.42,7535.31 2963.42,7667.11 2962,7676.52 2804.19,7676.52 2825.41,7535.31 		"/>
		<polygon class="st35" points="3096.75,7263.17 2673.07,10081.5 2515.25,10081.5 2938.93,7263.17 		"/>
		<polygon class="st36" points="3096.75,7263.17 2673.07,10081.5 2575.11,10081.5 2998.79,7263.17 		"/>
		<rect x="1752.91" y="7147.64" class="st38" width="1520.7" height="115.53"/>
		<rect x="1687.61" y="7147.64" class="st39" width="1186.02" height="115.53"/>
		<rect x="3096.75" y="7147.64" class="st40" width="10.88" height="115.53"/>
	</g>
	<g>
		<g>
			<path class="st27" d="M3018.76,6171.18c187.04,0,339.21,152.18,339.21,339.22h-31.67c0-169.58-137.96-307.55-307.54-307.55
				c-169.58,0-307.54,137.97-307.54,307.55h-31.67C2679.55,6323.36,2831.71,6171.18,3018.76,6171.18z"/>
		</g>
		
			<ellipse transform="matrix(0.7068 -0.7074 0.7074 0.7068 -3639.5364 4141.981)" class="st32" cx="3176.82" cy="6461.46" rx="111.25" ry="111.64"/>
		
			<ellipse transform="matrix(0.7073 -0.7069 0.7069 0.7073 -3746.491 4016.4907)" class="st32" cx="2977.24" cy="6532.67" rx="111.24" ry="111.64"/>
		<g>
			<polygon class="st41" points="3264.59,7147.64 2772.92,7147.64 2725.4,6553.67 3312.11,6553.67 			"/>
		</g>
		<g>
			<rect x="2664.36" y="6486.36" class="st42" width="708.79" height="67.32"/>
		</g>
	</g>
	<path class="st43" d="M1491.39,10081.5h97.96l57.66,59.67h853.3h72.61l-57.66-59.67h59.86h97.96l98.08,101.49h620.33l100.26-101.49
		h48.98h48.98h48.98l-433.09,438.41h68.02v17.97h-9.02l47.52,92.39h61.05v10.47h-16.13c-12.39,27.36-159.31,49.03-338.26,49.03
		c-72.87,0-140.4-3.61-195.74-9.71l4.61,139.06l4.1,25.67l0.77,4.98l1.08,6.82l0,1.65v36.95h0.07v101.71l356.06,23.42l-10.32,3.88
		l282.28,18.18c11.45,0.22,22.55,0.84,32.43,1.94l3.13,0.35l4.34,0.28l-0.56,0.14l330.11,36.72c27.53-2.49,61.67-2.86,92.62-0.44
		l52.27,4.08c14.81-0.8,31-1.14,47.91-0.88c52.17,0.8,94.36,7.37,99.53,15.48c6.98,10.97-51.78,20.11-122.27,19.02
		c-41.75-0.64-77.05-4.98-92.16-10.84c-3.56-0.17-7.09-0.38-10.56-0.65l-85.03-6.65c-10.26-0.8-18.24-2.04-23.54-3.49l-386.94-29.05
		c-9.36-0.7-17.15-1.7-23.45-2.88l-264.71-17.05l-15.43,5.8c-66.24-5.39-136.87-10.27-204.25-16.96v82.51
		c263.28,4.26,442.16,12.59,442.16,22.18c0,10.71-223.52,19.87-538.59,23.51l4.61,0.08l-38.67,20.46l-54.81,29.06
		c-17.8,9.44-82.53,14.67-142.42,11.52l-409.31-21.55l-25.45-29.71l-9.19-10.76c-278.04-4.11-469.3-12.68-469.3-22.6
		c0-9.58,178.88-17.92,442.16-22.18v-85.3l-12.19-0.67l-0.18-0.01c-168.24-28.63-158.49-57.52-173.86-84.12h51.37v-49.96l0.67-0.01
		l-0.67,0c-0.07-13.72,60.55-23.63,136.49-24.75c-16.26-8.68-30.64-17.08-43.23-25.24c-2.55-1.67-5.1-3.33-7.5-4.98
		c-12.37-8.39-22.96-16.54-31.92-24.5c-42.98-37.87-50.78-71.69-50.78-108.08c0-68.3,13.52-107.19,26.64-128.89h-13.03l17.01-25.66
		h20.42l0.01,0h21.19c-21.33-2.25-35.34-6.06-35.35-10.37l-0.01-9.4h-248.47h-65.3v-17.97h65.3h102.29l-423.67-438.41H1491.39z
		 M3369.78,10204.96h-577.4l285.53,295.46L3369.78,10204.96z M2822.81,10673.85c53.25,6.87,121.55,11,195.95,11
		c161.48,0,294.19-19.46,306.51-44.1h-39.86c1.01,0.69,1.86,1.39,2.31,2.1c6.98,10.97-51.78,20.11-122.27,19.02
		c-52.17-0.8-94.36-7.37-99.53-15.48c-0.49-0.77-0.58-1.53-0.44-2.28c-22.51,4.54-59.08,7.31-99.61,6.68
		c-39.83-0.61-73.79-4.59-89.95-10.05h-54.2L2822.81,10673.85z M2198.29,10557.65L2198.29,10557.65l8.41,0l34.02,25.66h-12.87
		l237.75,206.42l138.32-206.42h-65.54l17.01-25.66h65.72l0,0h26.03c-5.77-1.25-8.8-2.83-7.74-4.5l9.73-15.27h-486.63l0.01,9.39
		c0,4.31-14.01,8.12-35.34,10.37H2198.29z M2013.02,10519.91h860.61h65.3l-40.91-42.33h-72.61h-853.3L2013.02,10519.91z
		 M1950.88,10455.61h853.31h72.6l-56.22-58.18h-72.54h-853.37L1950.88,10455.61z M1873.43,10375.47h853.26h72.65l-51.56-53.36
		h-72.57h-853.35L1873.43,10375.47z M1800.64,10300.14h853.35h72.56l-56.27-58.23h-72.56h-853.35L1800.64,10300.14z
		 M1723.14,10219.95h853.36h72.56l-54.91-56.82h-72.61h-853.3L1723.14,10219.95z"/>
	
		<ellipse transform="matrix(0.7071 -0.7071 0.7071 0.7071 -313.642 3298.2307)" class="st32" cx="3824.5" cy="2027.71" rx="111.24" ry="111.64"/>
	
		<ellipse transform="matrix(0.7065 -0.7077 0.7077 0.7065 -2017.7352 4031.543)" class="st32" cx="3851.96" cy="4448.55" rx="111.25" ry="111.64"/>
	
		<ellipse transform="matrix(0.7079 -0.7064 0.7064 0.7079 -359.1114 4610.9233)" class="st32" cx="5394.7" cy="2739.6" rx="111.24" ry="111.64"/>
	
		<ellipse transform="matrix(0.7075 -0.7068 0.7068 0.7075 601.8865 3846.9585)" class="st32" cx="4947.94" cy="1196.42" rx="111.24" ry="111.64"/>
	
		<ellipse transform="matrix(0.7071 -0.7071 0.7071 0.7071 1539.902 4669.3081)" class="st32" cx="6406.3" cy="475.83" rx="111.24" ry="111.64"/>
	
		<ellipse transform="matrix(0.7075 -0.7067 0.7067 0.7075 -3418.5645 2719.5305)" class="st32" cx="1576.14" cy="5489.69" rx="111.24" ry="111.64"/>
	
		<ellipse transform="matrix(0.7071 -0.7071 0.7071 0.7071 -2144.479 5395.0088)" class="st32" cx="5440.11" cy="5286.12" rx="111.24" ry="111.64"/>
	
		<ellipse transform="matrix(0.7071 -0.7071 0.7071 0.7071 -2144.479 5395.0088)" class="st32" cx="5440.11" cy="5286.12" rx="111.24" ry="111.64"/>
	<path class="st32" d="M6956.05,5801.6c70.49-6.98,129.25,51.78,122.27,122.27c-5.17,52.17-47.36,94.36-99.53,99.53
		c-70.5,6.98-129.26-51.78-122.27-122.27C6861.69,5848.96,6903.89,5806.77,6956.05,5801.6z"/>
	
		<ellipse transform="matrix(0.7071 -0.7071 0.7071 0.7071 -1050.8588 6842.208)" class="st32" cx="7733.85" cy="4689.6" rx="111.24" ry="111.64"/>
	
		<ellipse transform="matrix(0.7079 -0.7063 0.7063 0.7079 -1234.4294 5947.7632)" class="st32" cx="6573.59" cy="4466.3" rx="111.24" ry="111.64"/>
</g>
</svg>
