<?xml version="1.0" encoding="utf-8"?>
<!-- Generator: Adobe Illustrator 24.3.0, SVG Export Plug-In . SVG Version: 6.00 Build 0)  -->
<svg version="1.1" id="MERCADO" xmlns="http://www.w3.org/2000/svg" xmlns:xlink="http://www.w3.org/1999/xlink" x="0px" y="0px"
	 viewBox="0 0 965.75 172.1" style="enable-background:new 0 0 965.75 172.1;" xml:space="preserve">
<style type="text/css">
	.st0{fill:#186C37;}
	.st1{fill:#97BF3D;}
	.st2{fill:#98BF3D;}
	.st3{fill:#95484B;}
	.st4{fill:#954144;}
	.st5{fill:#D15262;}
	.st6{fill:#E86C75;}
	.st7{fill:#E86C75;stroke:#D15262;stroke-width:0.3899;stroke-miterlimit:10;}
	.st8{fill:#E86C75;stroke:#D15262;stroke-width:0.3883;stroke-miterlimit:10;}
	.st9{fill:#136C37;}
	.st10{fill:#96C03D;}
	.st11{fill:#1A6C37;}
	.st12{fill:#98C03D;}
	.st13{fill:#156D37;}
	.st14{fill:#B09D41;}
	.st15{fill:#EDE644;}
	.st16{fill:#C0BB3E;}
</style>
<g id="Layer_60">
	<g>
		<g>
			<g>
				<polygon class="st0" points="122.45,128.75 125.96,128.82 127.17,69.85 125.05,67.66 123.85,68.44 121.18,127.12 				"/>
				<polygon class="st0" points="95.25,128.55 97.13,131.09 105.95,118.26 106.52,117.7 106.52,112.49 105.37,112.71 95.07,128.12 
									"/>
				<polygon class="st0" points="79.95,128.88 83.47,128.88 83.47,117.63 83.91,112.18 78.17,110.31 				"/>
				<path class="st0" d="M84.57,67.73h3.44c0,0,5.86,13.01,7.38,15.19l0.34,1.53l-2.06,2.67l-9.78-19L84.57,67.73z"/>
				<path class="st1" d="M84.57,67.73H60.52c0,0,3.38,32.36,3.31,61.15h16.12v-15.99l13.52,18.2l12.48-17.81v15.47h16.51
					c0,0,1.17-51.73,2.6-61.09h-22.23c0,0-5.46,12.74-9.36,18.33C93.47,85.99,86.32,74.03,84.57,67.73z"/>
			</g>
			<g>
				<path class="st0" d="M165.79,93.85c0,0,2.28,0.02,3.59,0.54l1.27-26.6h-2.71l-2.97,9.82l-0.94,15.07L165.79,93.85z"/>
				<path class="st0" d="M166.78,97.82h3.58c0,0-2.41,5.44-3.2,12.87c0,0-1.68-0.66-4.15-0.62l2.77-11.27L166.78,97.82z"/>
				<polygon class="st0" points="156.28,98.01 156.62,93.19 156.84,91.71 152.53,92.59 152.31,98.3 156.24,98.48 				"/>
				<path class="st0" d="M155.62,116.16c0,0-0.14-4.51,0.31-6.33l-0.71-0.46h-3.62v7.27h4.02L155.62,116.16z"/>
				<path class="st0" d="M164.24,128.82h3.36c0,0,2.43-10.96,3.76-14.64c0,0-1.46,0.82-3.87,0.86s-3.25,10.43-3.25,10.43V128.82z"/>
				<path class="st1" d="M164.24,128.82c0,0,2.34-11.96,3.25-13.78c0.13-0.65-0.13-0.91-0.13-0.91s-4.94,2.21-15.21,2.08v-6.56
					c0,0,7.73,0.13,11.63,1.43c0,0,1.17-10.01,2.99-13.26l-14.04,0.26l0.39-5.2c0,0,8.84,0.65,12.61,1.69l2.21-26.78h-42.63
					c0,0,2.47,31.58,2.73,60.44c0,0,0.03,0.58,0.66,0.58C129.32,128.82,164.24,128.82,164.24,128.82z"/>
			</g>
			<g>
				<path class="st0" d="M207.26,131.39l0.98,1.32c0,0,10.8-5.96,18.04-8.18c0,0-8.87-8.64-12.18-13.73c0,0,9.73-6.29,11.01-12.17
					c1.03-4.73-0.06-17.55-3.63-22.48c-4.1-5.68-8.01-9.01-28.53-9.45l13.2,3.61l13.29,10.78l0.37,17.3c0,0-1.12,2.99-1.4,2.99
					s-8.14,8.24-8.14,8.24l-1.03,1.68l5.9,7.77l3.09,3.84l0.19,1.97l-10.95,5.57l-0.56,0.45L207.26,131.39z"/>
				<polygon class="st0" points="198.92,128.82 199.89,95.1 195.21,92.49 194.76,128.73 195.3,128.82 				"/>
				<path class="st2" d="M210.52,110.77c0,0,11.07-6.71,11.51-15.5c0.44-8.8,1.49-22.88-19.9-27.48c-11.32-2.44-33.22,0-33.22,0
					s2.59,40.08,2.84,60.51c0,0.35,0.17,0.51,0.8,0.51c0.62,0,22.75,0,22.75,0v-9.74l9.31,13.64c0,0,13.17-6.67,18.34-8.17
					C222.95,124.55,213.52,115.77,210.52,110.77z M195.93,105.03V93.85c0,0,6.95,0.47,6.95,5.05S195.93,105.03,195.93,105.03z"/>
			</g>
			<g>
				<path class="st0" d="M257.51,130.18c0,0,8.03,0.22,10.76-1.75l2.24-14.29c0,0-1.22,1.53-2.7,1.75l-0.64,0.65l-2.21,11.54
					l-7.45,1.75V130.18z"/>
				<path class="st0" d="M261.34,93.49c0,0-10.86,2.46-9.61,13.51c1.25,11.04,11.77,9.12,11.77,9.12l-0.29,1.42l-7.99-0.37
					l-6.36-3.93l-1.75-7.24l1.12-6.77l6.05-5.74l7.11-0.59L261.34,93.49z"/>
				<path class="st0" d="M258.19,67.27c0,0,8.7-0.26,11.94,0.77l1.31,26.36c0,0-1.64-0.99-3.54-0.99l-0.82-1.32l-0.98-23.36
					l-7.46-0.98L258.19,67.27z"/>
				<path class="st2" d="M266.7,68.32l1.25,26.14c0,0-14.1-4.68-18.84,6.55c-2.14,5.08-1.12,15.66,10.79,15.66
					c5.05,0,8.37-3.21,8.37-3.21l-2.81,14.88c0,0-17.04,6.74-30.64-3.87c-7.24-5.65-16.28-17.66-11.68-34.83
					C225.5,80.84,233.2,62.33,266.7,68.32z"/>
			</g>
			<g>
				<path class="st0" d="M304.28,67.74h3.37c0,0,11.4,51.49,12.46,54.23v6.89h-2l-1.43-3.52l-12.82-57.21L304.28,67.74z"/>
				<path class="st0" d="M287.24,128.25c0,0,1.01,1.63,1.06,2.47c0,0,2.71-3.09,5.72-4.91l0.84-0.49l-1.17-2.41l-6.69,4.8
					L287.24,128.25z"/>
				<path class="st0" d="M279.76,128.82h4.01c0,0,3.93-15.82,5.46-19.94l1.25-1.64l-3.23-4.82l-6.38,18.12l-1.5,6.05L279.76,128.82z
					"/>
				<g>
					<path class="st2" d="M304.28,67.74h-24.57c0,0-7.64,39.91-13.24,61.07h13.29l1.45-4.83c0,0,1.87,2.57,3.28,6.74
						c0,0,5.47-5.29,8.89-6.6l1.83,4.69h22.91L304.28,67.74z M283.55,115.47l3.79-10.67c2.43,4.45,3.6,9.36,3.6,9.36
						C288.37,115.52,283.55,115.47,283.55,115.47z"/>
				</g>
			</g>
			<g>
				<path class="st0" d="M340.07,129.59c0,0,30.49,2.08,34.38-24.88c3.2-22.65-9.73-32.33-19.15-35.64
					c-9.95-3.49-19.78-2.54-19.78-2.54l18.4,5.1l12.91,10.95l3.56,13.94l-1.78,14.51l-3.84,5.99l-11.88,8.7L340.07,129.59z"/>
				<polygon class="st0" points="347.54,114.59 347.76,94.64 347.54,92.4 343.83,93.51 343.58,117.01 347.37,115.38 				"/>
				<path class="st2" d="M342.13,67.04c-11.13-1.64-25.45,1.15-25.45,1.15s3.25,45.17,3.18,60.62c0,0,44.31,8.41,50.6-21.57
					C372.33,98.31,375.17,71.91,342.13,67.04z M344.07,115.94l0.31-21.95c1.73,0.09,8.94,0.56,9.12,10.29
					S344.07,115.94,344.07,115.94z"/>
			</g>
			<g>
				<path class="st3" d="M410.03,67.23c0,0-0.7-2.88-0.17-5.38l-2.76-2.99l-2.48,0.23l1.05,8.83l3.12-0.34L410.03,67.23z"/>
				<g>
					<path class="st4" d="M427.2,47.61c-5.66-4.94-17.25-1.66-17.25-1.66c-0.47-7.25,7.74-11.39,7.74-11.39l-3.43,0.42
						c0,0-4.88,2.42-6.04,3.78c-1.4,1.64-3.39,7.92-3.39,7.92l3.39,11.69l7.54,7.86c6.4,1.82,9.71,0.11,11.95-2.23
						C429.96,61.65,432.86,52.55,427.2,47.61z M420.39,58.8c0,0-1.99,2.4-3.87,1.23c-1.88-1.16-3.64-4.03-3.64-4.03
						c0.51-1.75,4.99-2.89,4.99-2.89s3.13-0.6,3.24-0.53C421.23,52.64,420.39,58.8,420.39,58.8z"/>
				</g>
				<path class="st3" d="M407.98,88.14c0,0,7.08,2.64,6.77,13.81c-0.26,9.48-2.22,12.54-7.17,14.6l5.96,0.47l6.83-11.32l-2.9-14.41
					l-7.11-4.3L407.98,88.14z"/>
				<path class="st3" d="M409.48,136.88c0,0,25.3,2.87,34.28-24.92c6.32-20.78-8.36-35.16-12.79-37.9s-10.4-7.17-22.39-6.24
					l14.96,5.54l10.81,9.69l5.05,12.77l-0.56,13.9l-2.53,7.3l-8.7,11.51L409.48,136.88z"/>
				<g>
					<path class="st5" d="M408.12,67.17c-18.17,0-33.17,15.45-33.17,35.36s15.93,35,34.11,35c18.17,0,33.18-15.09,33.18-35
						C442.23,81.72,426.29,67.17,408.12,67.17z M408.48,116.81c-5.82,0-8.87-6.46-8.87-14.46c0-7.99,3.05-14.59,8.87-14.49
						c5.05,0.09,9.15,6.48,9.15,14.48S413.53,116.81,408.48,116.81z"/>
				</g>
				<g>
					<path class="st6" d="M408.12,67.82c-17.84,0-32.56,15.17-32.56,34.71s15.64,34.35,33.48,34.35c17.84,0,32.57-14.81,32.57-34.35
						C441.61,82.1,425.97,67.82,408.12,67.82z M408.48,116.55c-5.71,0-8.7-6.35-8.7-14.19c0-7.85,2.99-14.33,8.7-14.22
						c4.96,0.09,8.98,6.36,8.98,14.21S413.44,116.55,408.48,116.55z"/>
				</g>
				<path class="st7" d="M408.95,72.05L408.95,72.05c0,0-3.46-4.34-2.17-11.86l-2.5-8.5l-0.7-1.81c-0.47,0.22-10.2,13.41-4.54,28.48
					l0,0"/>
				<g>
					<path class="st8" d="M423.17,47.2c-6.99-4.76-16.33,0-16.33,0c-0.67-7.77,6.32-11.79,6.32-11.79
						c-7.21,1.4-9.69,5.94-9.69,11.88c0,10.91,5.24,17.08,11.51,18.89c6.27,1.81,9.94-3.14,10.93-4.5
						C426.92,60.31,430.16,51.96,423.17,47.2z M415.31,60.33c-2.44,0-4.33-2.1-5.72-4.51c0.13-0.32,1.36-1.77,5.06-2.62
						c4.4-1.01,5.19,1.71,5.31,2.49C420.16,56.86,418.34,60.33,415.31,60.33z"/>
					<path class="st7" d="M409.6,55.82c0,0-2.38-3.89-2.75-8.62"/>
				</g>
			</g>
		</g>
		<g>
			<polyline class="st9" points="503.29,114.29 503.77,94.14 503.29,93 499.7,93 499.2,116.58 503.07,115.64 503.29,114.29 			"/>
			<path class="st9" d="M488.47,66.66c6.31-0.25,17.78,0.07,25.33,3.25c7.55,3.18,20.17,12.94,16.31,35.31
				c-4.87,28.26-38.15,24.25-38.15,24.25l24.67-12.09l7.49-28.64l-18.16-15.44l-16.66-5.68L488.47,66.66z"/>
			<g>
				<path class="st10" d="M518.6,75.47c-3.88-3.88-10.92-11.73-45.95-7.7c0,0,2.45,31.06,2.82,60.59c0,0,39.66,7.28,48.65-15.27
					C531.45,94.69,525.33,82.19,518.6,75.47z M509.12,104.79c-0.75,9.48-9.42,10.86-9.42,10.86l0.35-21.71
					C503.96,94.18,509.87,95.31,509.12,104.79z"/>
			</g>
			<path class="st0" d="M568.06,93.61c0,0,2.28,0.02,3.59,0.54l1.27-26.6h-2.71l-2.97,9.82l-0.94,15.07L568.06,93.61z"/>
			<path class="st0" d="M569.04,97.58h3.58c0,0-2.41,5.44-3.2,12.87c0,0-1.68-0.66-4.15-0.62l2.77-11.27L569.04,97.58z"/>
			<polygon class="st0" points="558.54,97.77 558.89,92.95 559.1,91.47 554.8,92.35 554.58,98.06 558.51,98.24 			"/>
			<path class="st0" d="M557.88,115.92c0,0-0.14-4.51,0.31-6.33l-0.71-0.46h-3.62v7.27h4.02L557.88,115.92z"/>
			<path class="st0" d="M566.51,128.57h3.36c0,0,2.43-10.96,3.76-14.64c0,0-1.46,0.82-3.87,0.86c-2.41,0.05-3.25,10.43-3.25,10.43
				V128.57z"/>
			<path class="st1" d="M566.51,128.57c0,0,2.34-11.96,3.25-13.78c0.13-0.65-0.13-0.91-0.13-0.91s-4.94,2.21-15.21,2.08v-6.56
				c0,0,7.73,0.13,11.63,1.43c0,0,1.17-10.01,2.99-13.26L555,97.84l0.39-5.2c0,0,8.84,0.65,12.61,1.69l2.21-26.78h-42.63
				c0,0,2.47,31.58,2.73,60.44c0,0,0.03,0.58,0.66,0.58C531.59,128.57,566.51,128.57,566.51,128.57z"/>
			<path class="st9" d="M601.4,116.17c0,0,12.87-0.46,15.33-1.85c0,0-2.42,8.18-2.51,11.02c-0.09,2.84,0,3.4,0,3.4h-3.71l-2.18-4.3
				l2.81-6.8l-14.85,0.37l2.53-49.29l1.12-1.28h3.28L601.4,116.17"/>
			<path class="st1" d="M599.93,67.45h-28.92c0,0,2.99,38.46,2.67,60.66c0,0-0.11,0.64,3.95,0.64c4.06,0,32.88,0,32.88,0
				s0.28-5.3,0.66-6.68c0.37-1.38,1.84-5.76,2.09-7.92c0,0-5.21,2.03-15.44,2.15L599.93,67.45z"/>
		</g>
		<g>
			<path class="st11" d="M666.81,60.1L666.81,60.1c0,0,21.69-2.34,28.43,17.75c2.96,8.81,1.67,27.26-3.28,34.91
				c-1.48,2.29-4.18,5.77-7.77,7.64c0,0,3.93,4.52,9.79,7.21c0,0-5.7,6.51-11.41,8.52c0,0-1.17-0.56-1.52-1.54l0.75-6.06l-4.12-7.44
				l7.02-11.23l4.07-21.9l-4.91-14.74L666.81,60.1"/>
			<path class="st11" d="M668.73,89.1c0,0-4.19,2.51-4.1,9.07c0.09,6.17,2.21,9.72,3.96,10.89l-0.56,2.67l-10.98-6.93l2.5-10.98
				l5.61-7.42l4.49,1.5L668.73,89.1z"/>
			<g>
				<path class="st1" d="M693.69,92.78c0.89-20.45-12.04-32.68-26.88-32.68s-27.67,11.01-26.88,32.68
					c0.65,18.04,10.62,32.68,26.88,32.68c1.21,0,2.38-0.11,3.54-0.29c0.14,1.67,1.48,5.24,8.48,11.09c0,0,5.04-1.58,11.92-8.77
					c0,0-6.49-2.49-9.81-7.06C688.31,114.63,693.18,104.41,693.69,92.78z M666.81,109.86c-2.4,0-6.02-4.81-6.02-10.51
					c0-6.57,2.12-10.47,6.32-10.47c4.27,0,5.91,4.11,5.91,10.47C673.02,105.05,668.87,109.86,666.81,109.86z"/>
			</g>
			<path class="st9" d="M720.88,62.46h3.46c0,0-0.26,39.26,0.05,42.16c0.31,2.9,0.29,6.31,4.12,7.25l0.26,1.51l-3.95,2.18
				l-7.32-6.36l1.03-31.44l1.22-14.69L720.88,62.46z"/>
			<path class="st9" d="M727.11,125.13c0,0,15.97,0.51,23.21-4.17l0.5-58.5h-2.57l-1.82,2.01l-0.84,37.34l-0.66,17.59l-1.68,2.25
				L727.11,125.13z"/>
			<path class="st12" d="M720.88,62.46h-27.05c0,0,2.46,40.54,4.59,45.53c2.12,4.99,4.96,14.04,18.34,16.47
				c13.38,2.43,28.54-2.06,30.13-3.56l1.36-58.44h-21.51c0,0,2.65,28.4,2.18,49.27c0,0-6.6,2.68-7.88-5.05
				S720.88,62.46,720.88,62.46z"/>
			<path class="st0" d="M789.68,88.52c0,0,2.28,0.02,3.59,0.54l1.27-26.6h-2.71l-2.97,9.82l-0.94,15.07L789.68,88.52z"/>
			<path class="st0" d="M790.66,92.48h3.58c0,0-2.41,5.44-3.2,12.87c0,0-1.68-0.66-4.15-0.62l2.77-11.27L790.66,92.48z"/>
			<polygon class="st0" points="780.16,92.68 780.51,87.85 780.72,86.38 776.42,87.26 776.2,92.97 780.13,93.15 			"/>
			<path class="st0" d="M779.5,110.83c0,0-0.14-4.51,0.31-6.33l-0.71-0.46h-3.62v7.27h4.02L779.5,110.83z"/>
			<path class="st0" d="M788.13,123.48h3.36c0,0,2.43-10.96,3.76-14.64c0,0-1.46,0.82-3.87,0.86s-3.25,10.43-3.25,10.43V123.48z"/>
			<path class="st1" d="M788.13,123.48c0,0,2.34-11.96,3.25-13.78c0.13-0.65-0.13-0.91-0.13-0.91s-4.94,2.21-15.21,2.08v-6.56
				c0,0,7.73,0.13,11.63,1.43c0,0,1.17-10.01,2.99-13.26l-14.04,0.26l0.39-5.2c0,0,8.84,0.65,12.61,1.69l2.21-26.78H749.2
				c0,0,2.47,31.58,2.73,60.44c0,0,0.03,0.58,0.66,0.58C753.21,123.48,788.13,123.48,788.13,123.48z"/>
			<path class="st13" d="M811.04,124.43l1.11-0.85l10.17-5.05l3.06-13.54l-4.93-7.17l-1.19-11.29l8.73-1.31l-0.25-19.47l-12.21-4.94
				c0,0,12.68,0.02,17.97,2.03l1.04,26.31c0,0-2.1-0.9-3.5-0.85c-1.4,0.06-5.92-0.59-5.86,4.12c0.06,4.71,7.38,8.03,6.54,18
				C831.01,118.82,823.3,125.3,811.04,124.43"/>
			<path class="st13" d="M807.61,110.26c0,0-3.25,0.47-6.25-1.06c0,0-0.19,0.76-0.02,1.13l0.73,0.81l4.21,0.31l1.68-0.53
				L807.61,110.26z"/>
			<path class="st2" d="M831.09,89.36l-1.01-26.53c0,0-26.28-8-35.64,7.78c-3.3,5.57-3.12,15.16,1.12,21.15
				c4.24,5.99,13.18,11.65,13.51,14.76c0.32,3.05-1.63,4.51-4.13,4.38c-2.5-0.12-7.69-1.61-7.69-1.61l3.32,13.76
				c0,0,18.89,5.96,25.94-6.89c7.05-12.85-6.18-19.4-4.74-25.2S831.09,89.36,831.09,89.36z"/>
			<path class="st14" d="M870.39,61.32c-0.26,0-0.52,0.01-0.78,0.02c18.53,0.42,32.2,14.66,32.2,32.79
				c0,18.16-12.95,32.91-32.24,33.3c0.28,0.01,0.55,0.02,0.83,0.02c20.81,0,34.84-14.92,34.84-33.32S890.39,61.32,870.39,61.32z"/>
			<g>
				<path class="st15" d="M869.61,61.34c-10.84,0.21-20.11,4.65-26.23,11.67l11.44,10.84c0.67-0.12,1.38-0.2,2.13-0.2
					c3.41,0,6.18,1.36,6.18,3.04c0,1.04-1.06,1.95-2.67,2.5l7.25,6.87l-31.85-4.71c-0.07,0.92-0.11,1.85-0.11,2.79
					c0,5.74,1.3,11.14,3.69,15.86c5.44,10.2,16.25,17.18,30.13,17.45c19.29-0.39,32.24-15.15,32.24-33.3
					C901.8,76,888.14,61.76,869.61,61.34z"/>
				<path class="st16" d="M863.13,86.69c0-1.68-2.77-3.04-6.18-3.04c-0.75,0-1.46,0.08-2.13,0.2l5.64,5.34
					C862.07,88.64,863.13,87.73,863.13,86.69z"/>
			</g>
			<ellipse class="st16" cx="874.66" cy="103.53" rx="7.36" ry="4.59"/>
			<ellipse class="st16" cx="891.32" cy="98.96" rx="4.63" ry="2.89"/>
			<ellipse class="st16" cx="882.03" cy="83.42" rx="4.63" ry="2.89"/>
			<ellipse class="st16" cx="857.13" cy="120.01" rx="4.52" ry="2.89"/>
			<ellipse class="st16" cx="868.64" cy="74.31" rx="4.63" ry="2.89"/>
			<ellipse class="st16" cx="860.41" cy="68.82" rx="4.63" ry="2.89"/>
			<ellipse class="st16" cx="850.11" cy="105.22" rx="5.01" ry="3.12"/>
			<ellipse class="st16" cx="872.31" cy="90.44" rx="4.81" ry="2.99"/>
			<ellipse class="st16" cx="881.67" cy="68.83" rx="2.72" ry="1.7"/>
			<ellipse class="st16" cx="854.99" cy="78.84" rx="2.59" ry="1.61"/>
			<ellipse class="st16" cx="857.55" cy="98.96" rx="2.59" ry="1.61"/>
			<ellipse class="st16" cx="862.98" cy="112.23" rx="2.59" ry="1.61"/>
			<ellipse class="st16" cx="890.11" cy="108.49" rx="2.51" ry="1.56"/>
			<ellipse class="st16" cx="894.31" cy="87.94" rx="3.22" ry="2.01"/>
			<ellipse class="st16" cx="875.97" cy="118.61" rx="6.18" ry="3.04"/>
			<ellipse class="st16" cx="842.37" cy="94.5" rx="2.5" ry="1.61"/>
		</g>
	</g>
</g>
</svg>
