<?xml version="1.0" encoding="utf-8"?>
<!-- Generator: Adobe Illustrator 24.3.0, SVG Export Plug-In . SVG Version: 6.00 Build 0)  -->
<svg version="1.1" id="Layer_1" xmlns="http://www.w3.org/2000/svg" xmlns:xlink="http://www.w3.org/1999/xlink" x="0px" y="0px"
	 viewBox="0 0 2000 2000" style="enable-background:new 0 0 2000 2000;" xml:space="preserve">
<style type="text/css">
	.st0{fill:#FFFBEC;}
	.st1{fill:#683C11;}
	.st2{fill:#BBA185;}
	.st3{fill:#3F3936;}
	.st4{fill:none;}
	.st5{fill:#BAB6A8;}
	.st6{fill:#E9959B;}
	.st7{fill:#600015;}
	.st8{fill:#FFFFFF;}
	.st9{fill:#E8808A;}
	.st10{fill:#0D5C7C;}
	.st11{fill:#36A9E1;}
	.st12{opacity:0.7;fill:#E9959B;}
	.st13{opacity:0.7;}
	.st14{fill:#CCC7C4;}
	.st15{opacity:0.5;}
	.st16{fill:#937A61;}
	.st17{opacity:0.5;fill:#BBA185;}
	.st18{opacity:0.5;fill:#937A61;}
</style>
<g>
	<g>
		<g>
			<g>
				<path d="M1575.3,1433.35c4.83,9.12,8.53,18.47,13.51,27.48c7.16,17.06,13.47,34.49,19.3,52.05
					c11.43,34.45,14.77,70.99,20.54,106.7c12.53,77.58,10.74,156.01,9.68,234.31c-0.65,48.29-0.56,97.26,2,146.12h255.28
					c0.09-0.3,0.19-0.59,0.28-0.88c2.75-5.01,5.42-10.09,7.88-15.28c7.91-16.75,19.59-33.49,25.44-51.04
					c3.04-9.12,5.16-18.58,10.86-26.43c3.35-4.61,5.51-10.64,5.84-16.32c1.18-20.1-1.69-38.72-6.91-58.13
					c-5.18-19.21-11.14-38.4-17.64-57.21c-6.83-19.8-15.89-39.37-21.3-59.59c-4.92-18.4-13.66-35.88-22.62-52.58
					c-9.72-18.1-17.69-37.42-27-55.81c-8.77-17.3-18.91-33.81-27.66-51.19c-9.42-18.7-21.84-35.84-33.54-53.15
					c-22.22-32.86-52.15-60.58-80.85-87.6c-27.22-25.62-63.22-45.3-100.44-51.6c-14.57-2.47-29.64-3.24-41.69,6.54
					c-10.88,8.84-9.47,24.2-6.44,36.27C1562.37,1416.24,1570.46,1424.22,1575.3,1433.35z"/>
				<path class="st0" d="M1617.07,1508.84c12.78,31.92,17.53,65.34,24,99.07c14.36,74.91,13.91,150.67,13.18,226.61
					c-0.54,55.26-1.36,110.43,1.71,165.48h224.72c6.25-14.08,13.04-27.85,19.38-41.92c3.73-8.25,7.15-16.81,11.63-24.7
					c5.12-9.02,6.02-19.7,10.53-28.89c2.82-5.74,6.86-7.92,7.32-15.08c0.3-4.65,0.54-9.29,0.2-13.93
					c-0.81-10.61-2.71-20.98-5.47-31.26c-5.15-19.16-10.77-38.42-17.24-57.16c-13.63-39.49-25.69-81.11-46.31-117.57
					c-10.06-17.81-16.54-37.76-26.84-55.67c-9.76-16.95-18.24-34.24-27.7-51.28c-20.14-36.24-45.22-69.91-74.19-99.56
					c-14.66-14.99-29.91-30.14-46.11-43.49c-16.06-13.25-32.58-22.04-51.88-29.61c-10.57-4.15-61.33-24.4-61.35-1.57
					c-0.03,18.99,12.07,33.61,17.58,51.28C1597.62,1463.24,1609.59,1485.42,1617.07,1508.84z"/>
				<path class="st1" d="M1712,2000c-0.96-5.47-1.93-10.95-2.94-16.43c-4.19-22.78-9.34-56.56-39.15-56.23
					c-5.65,0.06-11.01,1.33-16.11,3.39c0.21,23.11,0.83,46.2,2.11,69.26H1712z"/>
			</g>
			<path d="M1394.07,1413.68c13.09,8.94,28.34,14.89,42.56,21.76c14.07,6.81,26.5,14.1,38.79,23.16
				c6.93,6.38,14.02,12.59,21.43,18.68c30.17,24.87,59.47,55.64,78.54,90c9.98,17.97,18.89,36.51,28,54.93
				c9.22,18.63,20.38,36.6,27.28,56.27c5.89,16.8,14.46,33.16,22.15,49.24c4.61,9.64,8.65,19.24,12.1,29.34
				c3.35,9.84,4.8,21.6,9.53,30.83c19.83,38.73,37.75,78.3,57.76,116.99c16.43,31.76,32.47,64.38,51.01,95.11H2000v-986.78
				c-16.94,1.97-33.95,3.53-50.82,5.93c-13.36,1.9-26.71,2.62-40.18,3.06c-0.98,0.03-1.97,0.07-2.95,0.12
				c-32.36-5.75-64.51-12.8-96.36-20.87c-64.69-16.4-127.51-38.95-191.77-56.75c-30.03-8.32-60.09-18.78-88.46-31.87
				c-4.53-2.09-8.76-4.42-12.82-6.95c-2.49-2.27-4.97-4.4-7.39-6.05c-12.6-8.61-22.07-22.5-35.37-29.87
				c-21.14-11.72-40.02,9.49-51.16,25.28c-18.52,26.3-29.63,57.42-39.99,87.63c-12.99,37.92-20.44,76.75-27.15,116.15
				c-6.24,36.69-11.59,73.35-13.47,110.57c-1.94,38.24-3.07,77.57,3.02,115.49C1350.72,1359.8,1364.08,1393.2,1394.07,1413.68z"/>
			<g>
				<path class="st0" d="M2000,1026.54c-0.08,0.01-0.16,0.02-0.24,0.03c-12.07,1.2-24.46,2.86-36.99,4.43
					c12.38,1.58,24.8,2.86,37.23,3.99V1026.54z"/>
				<path class="st0" d="M1422.7,1411.03c0.78,0.39,1.59,0.77,2.39,1.16c-2.91-2.31-5.51-4.89-7.87-8.11
					c-0.37-0.49,0.46-1.18,0.87-0.69c5.5,6.6,11.79,9.54,19.08,13.76c1.58,0.92,3.06,1.95,4.5,3.07
					c6.35,3.26,12.47,6.87,17.62,11.26c8.19,6.99,15.37,14.81,22.22,23c2.95,2.18,5.93,4.32,9,6.41
					c26.88,18.25,50.92,38.77,72.81,62.82c26.73,29.35,42.28,66.3,60.89,100.87c17.85,33.2,33.22,67.73,48.56,102.18
					c9.16,20.59,12.97,43.39,23.93,63.08c10.2,18.31,17.69,37.18,26.34,56.21c18.09,39.79,38.79,78.21,58.42,117.21
					c6.29,12.48,13.28,24.77,20.89,36.75H2000v-949.7c-34.49-3.36-68.81-8.25-102.88-14.59c-7.41-0.18-14.76-0.71-22-1.72
					c-5.5-0.77-10.82-3.24-16.05-5.91c-16.96-3.7-33.85-7.72-50.65-12.1c-66.21-17.21-130.25-40.66-195.43-61.23
					c-23.35-7.37-47.39-16.03-69.77-26.96c1.68,1.04,3.4,2.01,5.25,2.88c0.18,0.08,0.02,0.37-0.16,0.31
					c-12.82-4.41-26.14-12.51-37.42-19.97c-12.84-8.5-27.65-14.38-39.35-24.67c-21.57-18.93-40.51,17.45-49.61,33.36
					c-17.14,29.96-28.18,65.76-36.94,98.97c-8.82,33.43-14.18,67.51-19.59,101.63c-5.68,35.85-9.42,71.76-10,108.07
					c-0.56,34.79-2.23,70.91,6.64,104.9c4.35,16.7,8.94,31.81,19.57,45.73C1393,1393.91,1406.06,1402.74,1422.7,1411.03z"/>
				<path class="st1" d="M2000,1087.75c-6.3,0.72-12.49,2.33-18.46,5.19c-19.67,9.42-32.92,27.57-46.07,44.26
					c-3.81,4.84-7.7,9.65-11.72,14.32c-2.25,9.98-2.4,20.38-6.04,30.02c-4.76,12.58-15.53,19.73-27.54,24.83
					c-11.63,4.94-22.87,1.47-33.71-3.85c-13.19-6.46-26-14.08-40.98-8.96c-14.39,4.91-30.37,11.83-39.12,25.01
					c-13.09,19.72-6.01,44.98-4.11,66.79c2.25,25.87-1.94,50.94-19.56,71.05c-33.91,38.72-82.59,61.21-117.89,98.56
					c-12.91,13.67-28.34,34.14-18.4,53.73c5.36,10.56,15.04,18.28,25.06,24.25c15.56,9.25,32.92,16.01,49.88,22.27
					c26.59,9.8,54.13,15.38,81.35,22.96c26.26,7.31,50.62,18.46,72.36,35.07c14.99,11.45,28.02,24.83,41.93,37.49
					c12.5,11.37,25.44,22.31,39.1,32.26c22.4,16.34,46.99,31.16,73.91,38.66V1087.75z"/>
			</g>
			<g>
				<path d="M1952.9,727.18c-35.52-18.95-77.48-28.9-116.86-35.8c-42.15-7.39-86.37-7.71-129.03-6.31
					c-54.57,1.8-107.57,10.56-158.63,30.08c-24.63,9.41-48.2,20.74-70.22,35.3c-3.07,2.03-6.02,4.2-8.91,6.42
					c-9.45-2.95-18.98-5.64-28.57-7.86c-0.79-0.18-1.57-0.37-2.35-0.56c-7.44-3-14.97-5.73-23.13-7.97
					c-5.93-1.64-12.08-2.15-17.98-3.84c-3.15-0.91-6.4-1.44-9.55-2.4c-0.79-0.25-1.43-0.53-2-0.83c0.73-4.71,1.41-9.42,2.06-14.13
					c2.95-21.3,6.97-42.34,9.23-63.76c2.25-21.37,3.48-41.84-0.28-63.11c-1.65-9.32-5.59-24.44-17.75-24.57
					c-14.12-0.15-24.73,12.72-33.28,22.37c-14.14,15.97-28.74,31.24-41.84,48.12c-13.2,17.03-26.18,34.12-38.06,52.12
					c-0.37,0.55-0.74,1.11-1.12,1.66c-4.43-7.83-25.47-4.05-33.91-1.82c-6.86,1.8-13.38,4.76-19.61,8.22
					c-35.49-25.14-81.49-32.21-124.43-28.45c-23.24,2.03-45.27,7.08-66.56,16.65c-9.58,4.3-18.38,9.77-26.84,15.96
					c-1.38,1.02-4.01,2.92-6.92,5.22c-6.24-4.74-11.67-10.76-16.46-17.66c-2.86-4.12-7.79-12.72-13.02-4.8
					c-6.31,9.58-9.41,22.07-9.49,33.4c-0.04,5.66,1.51,14.86,5.31,21.13c-3.75,1.74-7.38,3.76-10.85,5.94
					c-7.77,4.88-15.41,10.48-22.52,16.67c-2.09-2.5-4.12-4.76-5.66-6.6c-12.56-14.95-26.37-27.86-42.61-38.73
					c-14.63-9.78-30.39-18.2-45.74-26.78c-9.8-5.48-24.95-7.02-28.57,6.87c-3.19,12.27,0.41,26.66,2.3,38.98
					c3.29,21.33,10.97,41.84,19.42,61.6c12.41,29.03,26.8,56.6,43.6,83.01c-0.47,1.18-0.92,2.37-1.36,3.57
					c-6.08-1.12-12.76-4.08-16.79-5.33c-9.29-2.86-18.64-5.55-27.83-8.75c-21.75-7.57-43.59-14.82-65.59-21.58
					c-39.9-12.28-79.15-18.75-120.91-14.46c-73.74,7.58-144.03,44.86-184.15,108.53c-6.97,11.06-14.67,21.57-7.02,33.94
					c3.28,5.31,9.16,9.28,13.91,13.15c8.94,7.31,17.71,14.59,27.02,21.47c31.77,23.46,66.53,39.96,105.05,48.97
					c79.87,18.68,167.42,0.92,237.87-38.9c13.58-7.68,26.33-16.54,39.39-25.05c-1.7,7.31-3.77,14.47-5.11,20.92
					c-3.72,17.89-5.24,36.1-9.03,54.01c-7.52,35.45-17.71,70.01-23.7,105.83c-6.07,36.29-15.1,71.85-21.48,108.04
					c-5.85,33.21-6.82,65.85-4.01,99.31c-0.58,0.78-1.16,1.53-1.72,2.31c-11.06,15.42-18.81,32.32-22.3,50.97
					c-6.99,37.42,0.42,72.36,23,103.02c11.35,15.41,24.67,28.66,35.01,44.87c6.41,10.04,11.01,19.68,11.84,31.68
					c1.2,17.32-12.94,23.5-21.67,35.01c-6.41,8.45,0.4,16.97,7.1,23.5c13,12.69,28.56,17.21,46.16,20.05
					c38.46,6.22,81.02-1.36,117.02-15.02c3.51-1.34,6.95-2.81,10.36-4.35c9.99,11.19,20.89,20.66,35.25,26.85
					c19.63,8.45,42.62,5.71,62.47-0.12c1.92-0.57,3.81-1.21,5.71-1.8c12.16,2.14,23.46,1.5,31.1,14.82
					c8.39,14.6,14.6,28.34,17.65,45.03c4.96,27.06-1.51,53.53,17.42,76.54c15.56,18.93,37.86,21.82,61.09,21.97
					c31.49,0.21,63.5-5.09,92.47-17.69c52.2-22.71,103.72-58.29,137.59-104.56c19.61-26.79,23.81-58.77,21.62-91.13
					c1.73-10.17,3.52-20.32,3.75-30.73c0.41-18.33,2.87-38,7.21-55.83c9.49-38.95,28.71-77.24,47.87-112.22
					c38.17-69.64,81.94-137.69,103.47-214.99c18.33-65.77,27.49-143.38-30.81-191.87c-11.97-9.96-25.38-16.43-39.59-19.9
					c-2.11-3.48-3.46-7.51-5.23-11.25c-5.4-11.44-9.45-23.69-14.38-35.35c-3.96-9.39-8.55-18.48-12.55-27.85
					c-1.3-3.07-2.79-6.08-4.21-9.1c-0.37-0.76-1.34-3.18-2.4-5.79c4.9,2.33,9.85,4.58,14.88,6.69
					c36.27,15.19,78.14,13.63,116.43,8.65c81.01-10.52,161.7-39.25,227.68-87.75c31.14-22.89,57.2-50.08,83.49-78.03
					C2004.03,756.93,1972.93,737.88,1952.9,727.18z"/>
				<path class="st2" d="M1264.01,701.33c0.26-0.59,0.48-1.15,0.67-1.69c1.49-2.13,3-4.24,4.55-6.36
					c9.82-13.31,20.18-26.2,31.05-38.66c10.8-12.38,21.37-24.83,32.81-36.63c10.93-11.26,23.4-26.57,36.94-34.56
					c15.02-8.85,14.59,33.75,14.65,39.19c0.15,17.05-1.12,34.18-2.53,51.16c-3.06,36.97-8.14,74.04-12.78,110.84
					c-0.46,3.64,3.85,3.17,4.79,0.33c0.24-0.76,0.44-1.54,0.67-2.29c0.05,2.11-0.04,4.27-0.46,6.51
					c-1.54,8.16-31.23,8.74-37.88,7.17c-10.91-2.55-21.24-3.37-31.37-8.67c-11.74-6.15-22.48-16.62-29.4-23.68
					c0.06,0.06,0.14-0.04,0.13-0.11l-0.03-0.23c3.41,0.68,6.77,1.46,10.04,2.24c3.1,0.74,7.08-1.22,7.48-4.74
					c1.54-13.71-21.83-21.78-31.99-24.83c-5.09-1.52-11.45-2.71-17.95-3.02c2.16-6.22,7.06-11.07,10.32-16.66
					c2.91-4.98,5.97-9.73,9.16-14.41C1263.38,702.1,1263.83,701.73,1264.01,701.33z"/>
				<path class="st3" d="M928.06,764.47c16.22-14.49,35.21-23.41,55.39-30.11c-6.25,0.41-12.47-0.45-18.98,1.29
					c-0.52,0.14-1.04,0.34-1.56,0.5c-0.29-0.82-0.63-1.61-1.07-2.32c-5.49-8.76-7.3-17.49-5.48-27.79c0.69-3.9,2.25-7.7,3.45-11.48
					c2.2-6.95,3.56-0.76,6.19,2.7c3.07,4.04,6.54,7.51,10.29,10.49c0.81,0.62,1.61,1.22,2.43,1.82c1.03,0.73,2.06,1.46,3.13,2.13
					c0,0-0.03,0.03-0.06,0.05c0.79,0.54,1.61,0.99,2.42,1.47c6.23,2.18,12.82,3.36,19.43,3.56c-4.58-1.41-8.85-3.33-12.79-5.8
					c28.7-18.5,67.56-26.04,99.46-27.65c38.28-1.93,76.96,5.63,112.27,20.3c-2.02,1.29-4.01,2.6-5.98,3.94
					c-6.04,4.09-10.35,9.92-14.99,15.4c8.93-6.51,18.64-11.95,28.85-16.2c9.05-3.76,18.27-6.44,27.7-9.01
					c7.22-1.98,14.98-4.36,22.44-2.31c0.65,0.18,0.74,1.02,0.48,1.55c-0.43,0.87-0.91,1.73-1.38,2.58l0,0l-0.02,0.03
					c-1.06,1.9-2.19,3.75-3.37,5.56c-1.2,2.15-2.33,4.34-3.27,6.59c-3.12,7.46-8.92,13.66-10.8,21.49c-5.75-0.19-11.54,0.37-16.63,2
					c10.88-0.41,22.17,2.12,32.44,4.5c10.76,2.49,25.22,5.71,30.02,17.02c0.3,0.7-0.41,1.75-1.11,1.89
					c-8.69,1.82-17.75,0.06-26.68-0.12c-0.08,0.01-0.17,0.02-0.26,0.03c-6.82,0.5-14.29,0.86-20.54,3.78
					c-0.56,0.26-0.83,0.84-0.72,1.42c0.96,5.49,7.24,10.87,10.04,15.8c2.91,5.15,3.88,11.66,5.03,17.41c-0.26-1.33,0.89,6,0.4,11.19
					c0.07,1.51,0.1,3.03,0.05,4.55c-0.03,0.88-1.04,2.13-2,1.48c-9.37-6.43-19.04-11.57-29.53-15.88
					c-4.56-1.87-9.16-3.78-13.22-6.49c-9.28,12.67-18.34,25.47-29.24,36.9c-7.13,7.47-14.53,14.2-22.75,20.45
					c-4.24,3.22-8.65,7.19-14.13,7.84c-0.87,0.1-1.05-1-0.78-1.6c2.29-4.88,4.76-9.68,7.06-14.56c3.48-10.04,6.54-20.23,10.26-30.2
					c0.2-0.53,0.07-0.96-0.2-1.23c-14.23,18.15-32.95,32.71-51.81,45.71c-13.76,9.47-27.32,19.48-41.53,28.25
					c-7.17,4.44-14.66,9-22.71,11.68c-3.74,1.25-9.98,3.25-13.49,0.26c-5.14-4.39-1.73-15.79-0.6-21.27
					c1.78-8.7,4.72-17.07,8.51-25.06c-8.15,3.32-15.52,8.77-23.47,12.47c0,0-0.03,0.01-0.05,0.01
					c-11.44,6.32-22.93,12.5-34.81,17.98c-5.36,2.47-10.4,5.54-15.57,8.39c-7.03,3.87-2.74-3.95-1.35-8.72
					c3.88-13.4,6.1-26.36,11.9-39.28c1.35-2.99-1.95-4.23-3.94-2.24c-16.05,15.99-38.53,32.26-43.03,56.15
					c-1.33,7.08-4.27-0.14-6.04-5.78c0.01-0.27-0.05-0.47-0.19-0.61c-0.7-2.29-1.18-4.22-1.23-4.61
					c-1.72-11.42-1.65-22.37-0.2-33.83c1.09-8.65,3.57-17.11,6.13-25.4c2.13-6.86,5.78-11.86,8.78-18.15
					c0.37-0.79,0.52-1.67,0.5-2.52c-12.97,2.08-25.57,5.62-38.03,10.07c-0.43,0.15-1.07-0.07-1.16-0.59
					c-1.54-9.29,3.84-17.98,9.49-24.92C912.51,779.21,920.17,771.52,928.06,764.47z"/>
				<path class="st2" d="M811.4,727.36c-0.63-4.5-0.88-9.11-1.51-13.63c-0.36-2.49-0.61-4.98-0.75-7.49
					c-0.65-8.1,7.51-3.89,11.38-1.49c11.18,6.93,23.93,12.1,35.7,17.99c13.89,6.94,28.46,14.65,40.36,24.74
					c4.67,3.98,13.42,10.11,20.61,16.99c-7.54,6.8-14.4,14.32-20.03,22.5c-4.28,6.22-18.26,25.65-9.24,33.17
					c4.32,3.6,8.17,2.78,13.15,0.9c8.16-3.09,14.88-7.61,22.82-10.44c-4.39,12.69-9.23,24.65-10.45,38.79
					c-1.14,12.97-1.27,28.01,3.38,40.79c-2.17,1.09-5.24,1.84-8.56,2.35c-3.46,1.82-7.99,2.51-10.96,2.88
					c-8.21,1.02-14.72-0.33-20.07-5.97c-0.1-0.06-0.21-0.1-0.32-0.16l-0.33-0.61c-0.52-0.61-1.06-1.2-1.57-1.89
					c-3.8-5.22-6.62-11.04-8.77-17.1C841.93,824.77,818.47,777.65,811.4,727.36z"/>
				<path class="st0" d="M1973.72,770.17c-5.01,7.71-12.6,15.08-19.01,21.62c-29.85,30.49-63.87,57.54-100.66,79.14
					c-37.15,21.81-77.38,35.65-118.7,47.17c-42.51,11.85-86.26,20.07-130.55,18.22c-4.92-0.21-9.76-0.68-14.55-1.36
					c-0.34,0.46-0.85,0.79-1.38,0.61c-1.76-0.59-3.53-1.13-5.29-1.69c-14.5-2.71-28.5-7.39-42.15-13.19
					c-2.29-0.74-4.59-1.45-6.88-2.22c-17.31-5.76-34.03-12.9-51.02-19.51c-12.61-4.9-25.07-9.63-38.25-12.36l0.06,0.04
					c18.86,7.12,37.31,14.55,54.84,24.6c10.99,6.29,22.04,12.31,33.33,17.9c2.34,8.3,4.09,16.73,6.02,25.17
					c3.04,13.33,8.91,26.72,14.28,39.25c3.92,9.18,9.27,17.2,14.31,25.64c-11.07-1.67-22.51-1.67-34.05-0.17
					c-17.96,2.34-35.3,9.01-51.03,17.75c-15.08,8.37-26.86,19.02-40.52,29.16c-0.37,0.28-0.06,0.84,0.36,0.55
					c31.08-21.84,60.36-40.31,99.85-40.81c33.22-0.43,63.1,16.77,83.14,42.52c21.27,27.32,24.93,62.3,21.95,95.59
					c-3.52,39.4-14.93,77.96-28.92,114.72c-14.33,37.59-32.87,72.84-51.94,107.84c-0.77-4.12-1.02-8.4-2.07-12.52
					c-1.81-7.12-7.3-13.48-11.74-19.04c-11.09-13.89-22.73-27.48-34.96-40.36c-28.29-29.81-63.06-56.3-100.13-74.04
					c-38.38-18.38-78.36-32.24-119.16-43.96c-38.73-11.13-75.98-14.15-116.16-11.16c-41.74,3.1-86.14,11.33-126.04,23.94
					c-38.45,12.17-74.3,30.97-109.26,50.83c-33,18.75-65.99,37.28-94.65,62.46c-13.03,11.44-23.74,25.18-34.18,38.95
					c-1.04,0.95-2,1.87-2.86,2.73c-3.57,3.62-6.98,7.39-10.24,11.28c3.15-33.2,6.59-66.12,12.4-99.07
					c6.73-38.06,15.77-75.67,22.35-113.83c6.36-36.93,19.32-72.83,23.58-110.1c1.93-16.92,3.59-34.12,4.18-51.15
					c0.12-3.64,0.31-7.58,0.34-11.57c-0.3-1.35-0.58-2.69-0.87-4.04c-0.83-3.75-1.98-7.68-3.02-11.66
					c0.21,5.4-0.48,11.05-1.58,16.71c-0.28-0.41-0.66-0.7-1.09-0.92c-0.51,0.8-1.22,1.55-2.19,2.23c-4.28,3.04-9.57,4.85-14.28,7.13
					c-6.25,3.02-12.53,5.98-18.85,8.83c-4.69,2.12-9.42,4.14-14.15,6.18c-19.55,9.95-39.45,19.17-60.33,25.67
					c-39.95,12.43-83.75,15.75-125.31,13.31c-37.82-2.22-74.51-14.18-108.14-31.21c-18.64-9.45-34.95-22.39-52.48-33.61
					c-6.77-4.34-13.74-8.62-20.23-13.36c-14.44-10.55,0.36-29.24,7.46-39.23c47.85-67.39,124.62-99.99,206.35-96.44
					c42.56,1.84,83.3,16.32,123.84,28.01c19.53,5.62,39.19,10.23,58.94,14.94c4.51,1.08,11.38,3.52,17.64,4.09
					c-0.22,0.63-0.45,1.24-0.67,1.87c-0.72,2.07-4.89,15.32-2.07,17.37c-0.23-0.17-0.61,0.19-0.43,0.43l0.34,0.72
					c2.63-5.15,4.52-10.84,6.72-16.04c0.31-0.73,1-1,1.53-0.88c0.31-0.72,0.59-1.45,0.92-2.17c0.56,0.87,1.15,1.73,1.72,2.6
					c0.32-0.17,0.67-0.18,0.95,0.09c12.02,11.98,25.17,12.74,40.58,9.87c3.46-1.52,6.59-3.52,8.81-5.99
					c0.73,1.56,1.52,3.08,2.42,4.54c4.14,6.72,8.86,0.7,10.02-4.75c3.99-18.89,20.14-32.85,34.57-45.52
					c-2.81,6.65-5.03,13.52-7.01,20.52c-2,7.04-9.3,22.24-3.99,29c0.88,1.12,2.13,1.73,3.58,1.4c5.78-1.32,11.12-4.89,16.22-7.77
					c10.04-5.68,20.87-10.02,31.1-15.37c7.41-3.87,14.67-8.01,21.84-12.34c-1.16,3.06-2.24,6.12-3.23,9.22
					c-3.27,10.27-8.7,33.92,8.28,34.68c7.06,0.32,15.88-6.32,21.71-9.64c10.38-5.91,20.59-11.98,30.64-18.42
					c19.52-12.49,37.93-27.53,54.09-44.13c6.82-6.99,13.63-14.29,19.25-22.29c-5.55,7.9-8.78,18.04-12.71,27.29
					c-0.62,1.47-16.23,26.69-2.92,24.03c16.08-3.22,32.66-22.53,44.14-33.14c10.82-9.99,19.59-20.91,25.39-33.82
					c9.81,7.88,23.19,13.31,32.8,20.19c4.9,3.48,12.65,6.97,14.7-1.8c3.05-13.1-0.54-27.62-7.43-38.97
					c-1.41-2.33-3.86-5.64-5.77-7.59c-6.91-7.04,3.99-7.34,9.2-7.68c6.15-0.41,12.46,0.32,18.66,1.48
					c-1.45,11.96,9.87,22.82,18.55,29.53c13.5,10.45,27.68,11.17,43.74,13.58c6.04,0.9,13.74-1.08,19.77-1.69
					c5.87-0.6,14.13-1.53,19.04-5.36c9.93-7.74,4.88-18.3,3.26-29.11c2.47-9.65,4.45-19.46,6.09-29.31
					c2.31,1.66,5.27,2.97,8.75,3.89c8.94,2.37,18.14,3.59,27.27,5.27c3.26,0.6,6.48,1.4,9.68,2.27
					c10.28,3.72,20.41,7.93,30.73,11.44c-3.31,2.91-6.55,5.91-9.67,9.06c-4.51,4.55-8.62,9.56-12.81,14.4
					c-2.12,2.46-4.26,4.93-6.4,7.38c3.35-3.86,1.42-2.02-0.96,0.87c3.61-2.22,7.27-4.39,10.7-6.84c3.06-2.18,6.02-4.46,8.97-6.79
					c5.12-4.7,10.42-9.25,15.99-13.6c0.83-0.64,1.71-1.23,2.55-1.87c0.22,0.07,0.45,0.12,0.67,0.19c2.99-2.28,6.06-4.46,9.21-6.53
					c-0.12-0.04-0.24-0.08-0.37-0.13c3.3-2.05,6.7-3.99,10.13-5.83c14.73-8.45,30.35-15.08,46.33-20.76
					c36.5-14.33,73.93-23.26,112.99-28.27c87.01-11.15,178.03-5.25,261.37,22.38c18.01,5.96,35.42,13.11,51.63,23.06
					C1966.74,753.93,1978.93,762.14,1973.72,770.17z"/>
				<path class="st3" d="M1157.96,813.32c-5.62,7.99-12.43,15.29-19.25,22.29c-7.08,7.28-14.62,14.23-22.47,20.82
					c5.65,1.19,10.96,3.24,15.44,6.71c17.59,13.62,7.32,33.35-2.36,48.73c-7.34,11.66-16.34,22.71-22.37,35.15
					c-7.68,15.83-9.38,36.91-9.1,54.24c0.53,32.36,9.87,64.78,31.91,89.11c23.59,26.05,56.36,41.56,88.14,55.17
					c38.71,16.58,78.86,29.31,118.83,42.5c15.74,5.2,30.95,9.5,47.76,8.63c16.14-0.83,32.48-4.87,46.39-13.34
					c14.88-9.06,27.9-22.87,32.83-39.94c5.02-17.39,3.11-35.64-1.89-52.82c-2.94-10.09-6.59-20.01-10.67-29.8
					c-2.75,1.89-5.5,3.79-8.27,5.74c-0.42,0.29-0.73-0.27-0.36-0.55c2.8-2.08,5.51-4.18,8.19-6.27
					c-9.36-22.22-20.95-43.74-31.71-64.96c-6.85-13.5-14.33-28.14-13.07-43.72c1.12-13.94,11.19-23.72,24.54-26.09
					c16.91-2.98,35.08,4.13,50.16-6.63c4.89-3.48,8.61-7.38,10.77-11.81c-14.87-7.71-30.31-13.89-46.06-19.83l-0.06-0.04
					c13.18,2.73,25.64,7.46,38.25,12.36c3.11,1.21,6.2,2.44,9.29,3.68c1.11-4.21,0.89-8.87-1-14.08
					c-3.59-9.87-9.34-18.88-12.23-29.04c-3.15-11.1-2.97-22.7,1.54-33.45c11.23-26.7,51.33-30.62,56.76-60.54
					c1.93-10.69,0.81-21.93-2.89-32.1c-15.91,5.67-31.46,12.27-46.13,20.68c-3.43,1.84-6.82,3.78-10.13,5.83
					c0.13,0.05,0.25,0.09,0.37,0.13c-3.15,2.07-6.22,4.25-9.21,6.53c-0.22-0.07-0.45-0.12-0.67-0.19c-0.84,0.63-1.72,1.23-2.55,1.87
					c-5.57,4.35-10.86,8.9-15.99,13.6c-2.95,2.33-5.91,4.61-8.97,6.79c-3.44,2.45-7.09,4.62-10.7,6.84
					c2.39-2.88,4.32-4.72,0.96-0.87c2.13-2.45,4.28-4.92,6.4-7.38c4.19-4.85,8.3-9.85,12.81-14.4c3.13-3.15,6.36-6.15,9.67-9.06
					c-10.32-3.5-20.45-7.71-30.73-11.44c-3.2-0.87-6.42-1.67-9.68-2.27c-9.13-1.68-18.33-2.9-27.27-5.27
					c-3.48-0.92-6.44-2.23-8.75-3.89c-1.64,9.85-3.61,19.66-6.09,29.31c1.62,10.82,6.67,21.38-3.26,29.11
					c-4.91,3.83-13.17,4.76-19.04,5.36c-6.02,0.61-13.73,2.59-19.77,1.69c-16.07-2.4-30.24-3.13-43.74-13.58
					c-8.68-6.71-19.99-17.57-18.55-29.53c-6.2-1.16-12.5-1.89-18.66-1.48c-5.21,0.34-16.1,0.64-9.2,7.68
					c1.91,1.95,4.36,5.26,5.77,7.59c6.89,11.35,10.48,25.86,7.43,38.97c-2.04,8.78-9.8,5.29-14.7,1.8
					c-9.62-6.87-22.99-12.3-32.8-20.19c-5.8,12.9-14.57,23.83-25.39,33.82c-11.48,10.61-28.05,29.91-44.14,33.14
					c-13.31,2.66,2.3-22.56,2.92-24.03C1149.18,831.35,1152.41,821.21,1157.96,813.32z"/>
				<g>
					<path class="st4" d="M1442.87,1066.49c0.05-0.34,0.15-0.65,0.21-0.99c-0.19,0.14-0.38,0.29-0.57,0.44
						C1442.14,1066.22,1442.45,1066.78,1442.87,1066.49z"/>
					<path class="st5" d="M1615.34,1169.05c-12.34,129.6-78.68,126.52-154.28,80.22c-74.81-45.8-338.48-189.73-653.45,104.77
						c-0.74,7.11-1.43,14.24-2.11,21.38c3.26-3.88,6.66-7.66,10.24-11.28c0.85-0.86,1.82-1.78,2.86-2.73
						c10.44-13.77,21.16-27.51,34.18-38.95c28.66-25.18,61.64-43.7,94.65-62.46c34.95-19.86,70.81-38.66,109.26-50.83
						c39.9-12.61,84.3-20.84,126.04-23.94c40.18-2.99,77.43,0.03,116.16,11.16c40.8,11.72,80.78,25.59,119.16,43.96
						c37.08,17.74,71.85,44.23,100.13,74.04c12.23,12.89,23.87,26.47,34.96,40.36c4.44,5.56,9.93,11.92,11.74,19.04
						c1.05,4.12,1.29,8.4,2.07,12.52c19.07-35,37.62-70.25,51.94-107.84c14-36.76,25.4-75.32,28.92-114.72
						c2.97-33.29-0.69-68.27-21.95-95.59c-20.04-25.75-49.92-42.95-83.14-42.52c-39.5,0.5-68.78,18.97-99.85,40.81
						C1515.06,1033.28,1627.69,1039.45,1615.34,1169.05z"/>
					<path class="st5" d="M1708.75,715.4c3.99-6.65,26.94-11.33,57.24-14.62c-39.37-2.23-78.97-0.67-117.78,4.3
						c-39.06,5.01-76.49,13.95-112.99,28.27c-15.99,5.69-31.6,12.32-46.33,20.76c-3.43,1.84-6.82,3.78-10.13,5.83
						c0.13,0.05,0.25,0.09,0.37,0.13c-3.15,2.07-6.22,4.25-9.21,6.53c-0.22-0.07-0.45-0.12-0.67-0.19
						c-0.84,0.63-1.72,1.23-2.55,1.87c-5.57,4.35-10.86,8.9-15.99,13.6c-2.95,2.33-5.91,4.61-8.97,6.79
						c-3.44,2.45-7.09,4.62-10.7,6.84c2.39-2.88,4.32-4.72,0.96-0.87c2.13-2.45,4.28-4.92,6.4-7.38c4.19-4.85,8.3-9.85,12.81-14.4
						c3.13-3.15,6.36-6.15,9.67-9.06c-10.32-3.5-20.45-7.71-30.73-11.44c-3.2-0.87-6.42-1.67-9.68-2.27
						c-9.13-1.68-18.33-2.9-27.27-5.27c-3.48-0.92-6.44-2.23-8.75-3.89c-1.64,9.85-3.61,19.66-6.09,29.31
						c1.62,10.82,6.67,21.38-3.26,29.11c-4.91,3.83-13.17,4.76-19.04,5.36c-6.02,0.61-13.73,2.59-19.77,1.69
						c-16.07-2.4-30.24-3.13-43.74-13.58c-8.68-6.71-19.99-17.57-18.55-29.53c-6.2-1.16-12.5-1.89-18.66-1.48
						c-5.21,0.34-16.1,0.64-9.2,7.68c1.91,1.95,4.36,5.26,5.77,7.59c6.89,11.35,10.48,25.86,7.43,38.97
						c-2.04,8.78-9.8,5.29-14.7,1.8c-9.62-6.87-22.99-12.3-32.8-20.19c-5.8,12.9-14.57,23.83-25.39,33.82
						c-11.48,10.61-28.05,29.91-44.14,33.14c-13.31,2.66,2.3-22.56,2.92-24.03c3.92-9.25,7.16-19.39,12.71-27.29
						c-5.62,7.99-12.43,15.29-19.25,22.29c-16.16,16.6-34.57,31.63-54.09,44.13c-10.05,6.44-20.26,12.51-30.64,18.42
						c-5.83,3.32-14.64,9.96-21.71,9.64c-16.98-0.76-11.55-24.42-8.28-34.68c0.98-3.1,2.07-6.16,3.23-9.22
						c-7.17,4.32-14.42,8.47-21.84,12.34c-10.23,5.35-21.07,9.69-31.1,15.37c-5.1,2.88-10.44,6.45-16.22,7.77
						c-1.45,0.33-2.7-0.28-3.58-1.4c-5.31-6.76,1.99-21.96,3.99-29c1.98-6.99,4.2-13.87,7.01-20.52
						c-14.43,12.67-30.57,26.63-34.57,45.52c-1.16,5.45-5.87,11.47-10.02,4.75c-0.9-1.46-1.69-2.98-2.42-4.54
						c-2.22,2.47-5.36,4.47-8.81,5.99c-15.41,2.87-28.56,2.11-40.58-9.87c-0.28-0.27-0.63-0.26-0.95-0.09
						c-0.57-0.87-1.16-1.73-1.72-2.6c-0.32,0.72-0.61,1.45-0.92,2.17c-0.53-0.12-1.22,0.15-1.53,0.88
						c-2.2,5.2-4.09,10.89-6.72,16.04l-0.34-0.72c-0.18-0.24,0.19-0.6,0.43-0.43c-2.82-2.05,1.34-15.3,2.07-17.37
						c0.22-0.63,0.45-1.24,0.67-1.87c-6.26-0.56-13.13-3.01-17.64-4.09c-19.74-4.71-39.41-9.31-58.94-14.94
						c-40.54-11.7-81.28-26.17-123.84-28.01c-42.61-1.84-83.85,6.16-120.36,23.76c32.84-8.98,70.28-16.37,91.1-10.89
						c42.6,11.21-123.3,51.57-161.41,105.37c103.13,60.53,208.5,56.05,286.97,31.38c53.71-16.88,27.57,39.76-51.07,61.37
						c16.05-2.28,31.87-5.69,47.13-10.44c20.88-6.51,40.78-15.72,60.33-25.67c4.73-2.04,9.46-4.05,14.15-6.18
						c6.32-2.85,12.6-5.82,18.85-8.83c4.72-2.29,10-4.1,14.28-7.13c0.97-0.68,1.68-1.43,2.19-2.23c0.43,0.22,0.81,0.51,1.09,0.92
						c1.09-5.66,1.79-11.31,1.58-16.71c1.05,3.98,2.2,7.91,3.02,11.66c0.29,1.35,0.57,2.69,0.87,4.04
						c-0.03,3.99-0.23,7.93-0.34,11.57c-0.59,17.03-2.24,34.23-4.18,51.15c-1.25,10.95-3.26,21.78-5.62,32.55
						c11.97-39.12,28.31-88.18,21.19-39.37c-10.8,74.06-20.05,209.84,64.8,195.95c84.86-13.89,95.65-111.09,91.03-185.14
						c-4.63-74.06-41.66-94.12-6.17-124.98c35.48-30.86,104.91-84.86,97.2-49.36c-7.72,35.48,1.53,12.34,20.05-6.17
						c-10.8,49.37,16.97,21.6,30.85,10.8c-49.36,95.65-6.17,236.06,67.89,276.17c43.21,20.05,87.94-3.08,87.94-3.08
						s-1.54,23.14,24.69,33.94c-12.34-37.02-12.34-81.77,50.92-117.26c-26.22-16.96-35.49,0-35.49,0s-24.68-191.31-120.34-220.63
						c43.21,6.18,24.69-24.68,16.97-33.94c57.09,30.86,92.58,30.86,128.06-4.63c-1.54,64.81,39.12,86.28,82.81,101
						c43.7,14.71,49.87,57.92,56.05,73.35c6.13,15.32-84.49,24.65-93.58,73.88c13.42-10,25.07-20.47,39.95-28.72
						c15.74-8.74,33.07-15.41,51.03-17.75c11.54-1.49,22.98-1.5,34.05,0.17c-5.04-8.45-10.4-16.47-14.31-25.64
						c-5.37-12.54-11.24-25.93-14.28-39.25c-1.93-8.44-3.68-16.87-6.02-25.17c-11.29-5.59-22.34-11.61-33.33-17.9
						c-17.53-10.04-35.98-17.48-54.84-24.6l-0.06-0.04c13.18,2.73,25.64,7.46,38.25,12.36c16.99,6.61,33.71,13.76,51.02,19.51
						c2.29,0.76,4.59,1.47,6.88,2.22c13.64,5.8,27.65,10.48,42.15,13.19c1.76,0.56,3.53,1.11,5.29,1.69
						c0.53,0.18,1.05-0.14,1.38-0.61c4.8,0.68,9.64,1.16,14.55,1.36c44.29,1.85,88.04-6.37,130.55-18.22
						c12.56-3.5,25-7.26,37.3-11.35c-68.65,11.5-121.16-4.94-72.88-18.73c94.16-17.93,197.28-112.1,197.28-112.1
						s24.67,2.24,40.68-19.74C1888.75,758.86,1688.57,731.1,1708.75,715.4z"/>
				</g>
				<path class="st6" d="M481.75,958.34c0,0,197.89-147.21,325.71-37.02C740.24,982.18,593.17,1028.66,481.75,958.34z"/>
				<path class="st6" d="M1890.06,764c0,0-287.72-60.35-384.73,56.49c86.83,49.59,120.45,87.7,234.79,42.86
					C1854.46,818.53,1890.06,764,1890.06,764z"/>
				<path class="st3" d="M1043,941.15c-17.38,4.06-22.96,24.85-23.55,41.09c-0.67,18.09,2.31,39.87,13.47,54.79
					c3.35,4.48,8.25,9.21,14.29,9.03c7.67-0.23,13.61-6.69,17.72-12.53c12.99-18.44,19.36-41.6,10.26-63.15
					C1069.69,957.35,1057.8,943.36,1043,941.15z"/>
				<path class="st6" d="M1519.29,1476.84c-14.3,29.95-29.16,64.01-33.59,97.09c-1.91,14.22-0.9,28.47-0.57,42.73
					c0.12,5.68-0.26,11.29-0.81,16.89c-2.6-22.44-7.69-44.74-12.31-65.33c-0.48,1.84-0.87,3.57-1.05,5.15
					c-0.12,1.13-0.24,2.26-0.36,3.38c4.55,27.19,9.29,55.76,8.47,83.07c-0.89,29.66-14.12,59.23-33.45,81.28
					c-18.9,21.57-40.47,40.8-64.92,55.83c-24.25,14.92-48.04,30.14-75.34,39.03c-26.83,8.76-55.98,11.32-84.05,9.56
					c-30.6-1.92-48.07-23.06-51.19-52.57c-2.52-23.81-2.3-45.68-14.72-67.13c-4.99-8.62-12.27-17.43-20.85-22.56
					c-7.85-4.71-16.14-3.04-24.45-2.79c8.84-2.77,17.62-5.7,26.25-8.9c16.54,0.73,33.04,7.39,47.2,15.26
					c11.03,6.13,21.2,12.54,30.67,20.89c8.85,7.82,15.75,16.99,25.29,24.06c15.24,11.3,29.83,12.61,46.04,2.75
					c16.46-10.02,23.92-31.94,32.69-48.02c10.38-19,20.77-37.41,28.09-57.88c8.37-23.41,12.63-47.63,23.75-70.11
					c10.07-20.36,15.79-42.42,26.89-62.41c7.17-12.93,15.79-24.87,24.22-36.92c4.97-6.35,9.69-12.83,13.88-19.48
					c1.82-1.67,3.65-3.37,5.44-5.09c17.73-17.06,31.34-44.82,22.75-67.76c1.73,0.28,3.44,0.43,4.99,0.43
					c17.49,0.02,34.89-10.04,42.79-25.49c-18.73,16.22-49.22,29.38-63.63,13.7c0.98,5.39,6.11,8.74,11.76,10.43
					c4.54,13.58-1.23,33.55-6.42,42.66c-11.22,19.76-31.01,34.03-48.99,47.23c-33.47,24.56-70.75,45.6-108.66,62.5
					c-39.43,17.56-80.97,29.36-122.28,41.46c-37.36,10.95-70.92,26.26-104.49,45.89c-35.78,20.92-70.05,42.23-110.87,51.9
					c-38.04,9.01-91.03,12.56-124.02-12.29c-12.77-9.63-0.17-18.83,6.04-26.6c4.19-5.23,6.09-10.29,7.03-16.91
					c2.24-15.76-6.13-29.51-13.36-42.72c-19.49-35.63-44.89-70.72-46.21-112.87c-0.84-26.68,6.86-50.72,17.69-74.67
					c4.3-9.49,10.44-18.73,17.02-27.17c7.21-7.78,14.82-15.23,22.29-22.22c27.83-26.04,60.93-45.69,93.78-64.56
					c33.27-19.13,65.85-38.54,101.59-52.83c38.62-15.45,82.23-22.73,123.4-27.81c41.59-5.13,81.22-5.16,121.9,5.84
					c39.68,10.73,77.12,24.89,115.01,40.68c39.77,16.58,73.59,42.54,104.87,71.81c14.91,13.95,27.61,30.16,40.65,45.81
					c6.38,7.63,10.35,14.42,11.86,24.36c0.66,4.35,1.8,8.34,3.97,11.92C1546.62,1423.55,1532.2,1449.76,1519.29,1476.84z"/>
				<path d="M1937.74,756.18c-19.26,7.64-41.76,4.38-61.83,2.22c-22.42-2.4-44.68-5.09-67.17-6.96
					c-45.18-3.77-90.34-6.12-135.7-5.08c-39.16,0.9-75.76,7.36-110.65,25.75c-33.67,17.74-64.52,42-87.56,72.43
					c-1.47,1.93,0.83,3.73,2.46,1.99c7.06-7.57,14.53-14.66,22.34-21.35c1.16,4.13,6.13,6.35,10.35,8.23
					c11.44,5.1,21.06,12.48,32.59,17.29c14.7,6.13,28.94,13.25,43.76,19.07c12.65,4.97,26.14,13.45,39.95,9.51
					c0.39-0.11,0.5-0.82-0.01-0.72c-13.57,2.78-26.46-7.15-37.93-12.88c-11.52-5.75-22.51-12.36-34.18-17.78
					c-6.42-2.98-13.93-5.43-19.63-9.65c-3.48-2.57-6.74-5.92-10.71-7.78c-6.6-3.1-12.72-5.66-18.49-9.96
					c20.75-16.88,43.74-30.89,68.27-41.89c39.63-17.77,83.21-18.97,125.9-19.08c42.78-0.12,85.5,2.25,128.25,3.08
					c20.79,0.41,41.49,1.73,62.3,1.39c16.14-0.26,32.97-0.2,47.86-7.15C1938.32,756.66,1938.22,756,1937.74,756.18z"/>
				<path d="M1393.73,763.55c-0.38-0.12-0.82,0.45-0.46,0.72c5.86,4.39,5.84,14.45,4.9,21.29c-0.94,6.8-5.47,13.95-9.46,19.37
					c-1.56,2.11-0.19,5.92,2.81,4.33c9.61-5.1,14.24-13.68,15.31-24.3C1407.73,776.2,1402.18,766.26,1393.73,763.55z"/>
				<path d="M868.72,946.6c-33.24-12.63-61.73-33.78-92.76-50.65c-32.18-17.49-69.6-21.78-105.67-19.31
					c-34.01,2.33-66.37,12.58-97.48,26.06c-16.47,7.13-32.34,15.88-47.61,25.28c-7.26,4.48-14.1,9.62-20.78,14.93
					c-3.79,3.01-17.06,17.49-22.68,15.43c-0.3-0.11-0.65,0.37-0.37,0.59c5.09,3.95,13.25-4.56,17.45-7.22
					c16.19-10.22,32.76-19.6,49.87-28.21c33.29-16.73,68.65-29.08,105.62-34.17c37.33-5.15,78.23-1.27,113.26,12.95
					c13.68,5.56,26.8,12.27,39.89,19.04c-20.95,11.7-39.63,27.5-60.6,39.57c-11.8,6.79-24.18,10.61-36.5,16.03
					c-6.68,2.94-34.59,16.51-42.14,7.97c-0.23-0.25-0.65,0.09-0.48,0.38c3.29,5.45,11.56,4.12,17.02,3.54
					c15.56-1.67,31.32-7.08,45.99-12.38c15.99-5.76,30.73-15.21,45.03-24.25c12.76-8.08,24.6-16.64,33.83-28.76
					c0.18-0.24,0.28-0.52,0.33-0.83c18.77,9.73,37.54,19.42,57.87,25.86C868.85,948.78,869.85,947.03,868.72,946.6z"/>
				<path d="M1033.36,1387.66c-17.46-31.96-77.99-104.64-117.83-62.67c-18.57,19.55-22.91,51.83-24.95,77.55
					c-1.34,16.75-0.66,33.49,0.44,50.22c0.3,4.61-0.91,17.3,4.74,19.77c0.62,0.28,1.39-0.81,0.78-1.23
					c-5.3-3.56-0.31-25.43,0.17-29.12c1.51-11.84,2.97-23.89,5.11-35.63c4.1-22.55,8.59-45.78,19.46-66.12
					c14.46-27.06,48.69-10.76,67.17,1.27c18.47,12.03,31.13,29.36,42.97,47.49C1032.21,1390.43,1034,1388.81,1033.36,1387.66z"/>
				<path d="M1289.29,1299.69c-7.14-27.67-23.64-50.64-44.98-69.26c-21.91-19.14-45.78-35.26-74.1-19.04
					c-26.11,14.95-34.12,47.85-43.02,74.29c-5.4,16.05-6.63,32.45-7.79,49.2c-0.57,8.26-3.69,22.43,3.26,28.69
					c0.16,0.14,0.43-0.14,0.31-0.3c-5.84-7.94-0.03-24.16,1.67-33.01c2.84-14.72,6.35-28.6,11.95-42.56
					c9.14-22.79,17.7-52.47,40.75-64.84c23.21-12.46,47.52,10.42,64.07,24.74c18,15.57,31.52,34.43,43.39,54.88
					C1286.29,1305.07,1289.88,1301.98,1289.29,1299.69z"/>
				<path d="M1417.38,1675.89c-8.83,20.69-19.51,40.21-34.29,57.3c-17.26,19.96-39.74,31.61-63.21,42.69
					c-22.86,10.8-47.39,20.3-73.01,19.61c-13.37-0.36-24.95-4.66-35.17-13.25c-8.52-7.17-20.02-20.6-22.77-31.86
					c-0.1-0.38-0.65-0.11-0.62,0.2c2.02,20.21,20.94,44.45,38.67,53.32c25.73,12.88,58.39,1.01,82.88-8.84
					c26.94-10.82,52-25.44,71.32-47.33c17.96-20.36,29.81-45.93,38.75-71.3C1420.5,1674.76,1417.97,1674.49,1417.38,1675.89z"/>
				<g>
					<path d="M1023.07,1500.26c-5.47-27.7-17.18-49.43-33.65-72.01c-5.91-8.08-28.98-37.57-42.13-25.71
						c-16.67,15.06-3.06,39.74-7.02,58.17c-0.08,0.47,0.5,0.4,0.62,0.05c4.38-12.55-1.37-26.99,2.31-40.05
						c2.82-9.97,6.89-15.88,17.71-8.38c7.03,4.89,12.69,11.5,17.85,18.25c0.16,0.21,0.32,0.44,0.48,0.65
						c-0.1,0.31-0.19,0.62-0.23,0.95c-3.95,40.71,8.63,90.14,44.16,114.46c0.59,0.41,1.32,0.19,1.75-0.34
						C1034,1534.89,1025.52,1512.65,1023.07,1500.26z"/>
					<path class="st7" d="M1022.84,1540.68c-0.52-2.08-3.07-3.52-4.65-4.88c-6.69-5.78-10.27-15.84-14.65-23.3
						c-12.74-21.7-14.77-46.69-16.96-71.17c14.21,20.34,25.29,41.71,32.56,65.96c1.66,5.54,3.57,10.86,4.75,16.53
						c0.65,3.03,1.2,6.08,1.69,9.14c0.05,0.93,0.12,1.86,0.19,2.8C1026.62,1538.36,1025.65,1540.01,1022.84,1540.68z"/>
					<path d="M1258.94,1395.74c-3.73-30.25-14.06-61.13-29.66-87.36c-8.82-14.82-31.78-41.65-50.08-23.81
						c-6.9,6.73-6.79,22.31-8.66,31.1c-1.38,6.48-2.61,13.05-3.3,19.66c-0.67,6.42,0.67,13.99-1.06,20.18
						c-0.07,0.24,0.28,0.29,0.36,0.08c4.08-10.51,3.07-23.74,5.77-34.92c2.15-8.85,4.38-17.96,7.78-26.42
						c6.62-16.44,26.92,6.49,30.69,11.15c0.69,0.85,1.35,1.74,2.03,2.62c-0.1,0.26-0.21,0.53-0.23,0.81
						c-2.66,27.62-0.39,56.96,6.66,84.01c5.32,20.43,20.38,45.74,37.3,58.59c0.55,0.42,1.29,0.45,1.9,0.15
						c3.37-1.69,3.37-4.85,3.5-8.35C1262.47,1427.62,1260.84,1411.23,1258.94,1395.74z"/>
					<path class="st7" d="M1257.17,1445.92c-9.2-10.83-17.05-22.59-23.61-35.19c-15.18-29.16-14.79-62.83-15.02-94.93
						c17.58,25.64,29.29,57.22,35.37,86.9c1.96,9.56,2.61,19.12,3.39,28.8C1257.12,1429.53,1258.43,1447.4,1257.17,1445.92z"/>
				</g>
				<path d="M1020.99,1023.95c-3.8-17.44-11.31-41.56-25.75-55.08c-2.22-3.22-5.07-6.05-8.88-8.37c-9.65-5.89-19.46-6.49-29.85-2.84
					c-25.62,9.02-42.5,40.38-51.93,63.73c-6.66,16.52-14.09,33.82-18.25,51.14c-4.31,17.93-5.9,36.51-6.62,54.9
					c-1.2,31.53,4.1,73.33,30.68,94.01c21.84,16.98,51.17,8.12,70.1-8.36c23.57-20.54,35.39-52.41,40.63-82.37
					C1027.26,1095.5,1028.61,1058.88,1020.99,1023.95z"/>
				<path class="st8" d="M1018.49,1108.17c-2.58,29.35-8.32,56.62-24.72,81.64c-16.08,24.52-45.27,43.55-73.39,25.87
					c-23.72-14.9-30.17-54.56-30.92-79.98c-0.87-29.41,3.44-57.55,13.25-85.19c8.88-25.07,17.57-48.52,34.88-69.07
					c7.8-9.28,17.33-17.21,29.45-19.62c2.45-0.48,4.74-0.64,6.91-0.56c0.09,0.32,0.32,0.56,0.72,0.67
					c12.03,3.33,20.19,12.77,26.09,24.09c0.79,2.04,1.51,4.1,2.16,6.14c0.11,0.36,0.59,0.05,0.52-0.25
					c-0.04-0.19-0.08-0.39-0.12-0.59c4.6,10.33,7.66,21.6,10.28,31.01C1021.59,1051.13,1021.08,1078.69,1018.49,1108.17z"/>
				<path d="M1392.4,1069.85c-3.88,8.66-13.71,12.77-20.35,18.94c-3.79,3.54-7.51,7.37-10.82,11.46c0.67-5.15,0.94-10.44,0.78-15.81
					c-0.52-17.42-4.61-35.61-7.68-52.77c-3.32-18.53-7.93-38.08-15.88-55.21c-7.62-16.43-17.46-31.52-26.16-47.36
					c-22.63-41.19-66.88-93.13-114.77-51.59c-17.65,15.3-26.05,42.55-29.1,63.72c-5.62,39.08-3.32,77,8.03,114.83
					c10.52,35.07,25.73,67.66,56.51,88.67c12.8,8.74,24.84,15.81,40.45,18.27c15.64,2.47,33.13-1.61,47.53-7.49
					c8.68-3.55,15.85-8.52,21.66-14.5c-0.61,6.22-0.04,12.65,2.26,19.43c1.34,3.97,6.76,1.22,6.62-2.2
					c-0.92-22.35,3.97-41.69,16.64-60.22c6.86-10.02,20.49-16.6,24.7-28.04C1392.93,1069.69,1392.54,1069.56,1392.4,1069.85z"/>
				<path class="st8" d="M1342.11,1136.16c-12.23,15.8-36.53,21.82-55.39,22.87c-34.63,1.92-67.27-28.21-82.22-57.11
					c-18.03-34.86-29.58-72.8-31.51-112.11c-1.51-30.76,0.42-68.1,17.93-94.95c0.41-0.21,0.77-0.54,0.94-1.02
					c0.08-0.27,0.19-0.5,0.28-0.76c3.43-4.96,7.35-9.59,11.99-13.67c52.3-45.99,105.99,57.89,124.48,93.33
					c17.05,32.7,22.56,72.15,27.44,108.24c1.29,9.6,0.8,19.5-1.47,28.91c-4.72,7.78-8.65,15.66-10.7,23.87
					C1343.3,1134.57,1342.73,1135.38,1342.11,1136.16z"/>
				<path class="st8" d="M1056.22,1694.05c-17.91-1.42-34.92-8.83-49.76-18.89c31.28-14.79,58.97-37.35,88.58-54.84
					c35.35-20.87,75.97-33.49,115.43-44.25c39.12-10.68,77.32-24.67,113.37-43.42c31.19-16.22,62.67-34.09,90.76-55.84
					c-4.87,6.4-9.43,13.04-13.66,19.92c-0.65,0.81-1.31,1.66-1.97,2.46c-13.35,16.34-26.84,32.69-41.31,48.04
					c-32.1,34.04-70.42,61.91-111.2,84.58c-39.7,22.09-83.17,40.28-127.05,51.9C1097.84,1689.43,1078.89,1695.84,1056.22,1694.05z"
					/>
				<path class="st7" d="M1233.62,1727.59c0.59,3.56,1.31,5.82,2.19,8.03c-5.63-5.14-10.94-10.56-15.79-15.07
					c-19.02-17.69-47.14-32.1-74.37-32.56c30.75-12,60.34-26.48,89.39-43c5.49-3.11,10.93-6.3,16.33-9.54
					c-0.41,0.62-0.8,1.24-1.16,1.84c-6.33,10.84-13.91,22.94-15.64,35.5c-1.69,12.34-2.18,25.57-2.16,38.03
					C1232.42,1716.48,1232.73,1722,1233.62,1727.59z"/>
				<path class="st9" d="M1240.64,1682.68c1.8-15.5,5.43-39.88,18.4-51.95c32.75-20.19,63.65-42.87,91.42-69.86
					c13.8-13.43,26.35-28.09,38.66-42.9c-6.65,13.19-12.38,26.82-17.32,40.47c-6.8,18.79-14.86,36.89-20.61,56.07
					c-7.23,24.06-13.91,46.79-26.09,69.02c-10.28,18.77-19.96,39.23-33.03,56.16c-16.39,21.23-33.67,14.41-49.17,2.03
					c-1.43-7.8-4.34-14.6-4.64-22.83C1237.82,1706.91,1239.26,1694.54,1240.64,1682.68z"/>
				<path d="M998.58,732.24c-0.19,0-0.3,0.32-0.08,0.32C998.68,732.57,998.78,732.24,998.58,732.24z"/>
				<g>
					<g>
						<g>
							<path class="st10" d="M1324.53,1066.05c14.84,39.81,5.66,80.54-20.52,91.01c-26.2,10.52-59.43-13.27-74.23-53.05
								c-14.84-39.85-5.67-80.6,20.51-91.07C1276.47,1002.47,1309.69,1026.26,1324.53,1066.05z"/>
							<path class="st11" d="M1321.81,1074.41c13.52,36.26,5.16,73.36-18.69,82.9c-23.87,9.58-54.13-12.08-67.61-48.32
								c-13.52-36.3-5.17-73.4,18.68-82.94C1278.04,1016.5,1308.29,1038.16,1321.81,1074.41z"/>
							<path d="M1304.23,1098.51c7.3,19.47,2.82,39.4-10,44.53c-12.74,5.1-29.05-6.51-36.32-25.95
								c-7.26-19.48-2.73-39.43,10.04-44.55C1280.75,1067.42,1297.01,1079.06,1304.23,1098.51z"/>
							<path class="st8" d="M1297.7,1049.55c4.05,10.82,1.54,21.95-5.59,24.82c-7.15,2.84-16.21-3.63-20.21-14.48
								c-4.08-10.83-1.56-21.96,5.56-24.81C1284.61,1032.21,1293.67,1038.68,1297.7,1049.55z"/>
							<path class="st8" d="M1312.08,1090.3c2.05,5.44,0.78,11.02-2.82,12.45c-3.55,1.43-8.08-1.84-10.11-7.28
								c-2.02-5.39-0.76-10.97,2.82-12.38C1305.52,1081.64,1310.05,1084.86,1312.08,1090.3z"/>
						</g>
					</g>
				</g>
				<g>
					<g>
						<g>
							<path class="st10" d="M993.26,1150.28c2.72,38.26-15.62,71.19-40.96,73.6c-25.38,2.43-48.1-26.63-50.79-64.86
								c-2.7-38.3,15.61-71.26,40.96-73.66C967.83,1082.96,990.55,1112.03,993.26,1150.28z"/>
							<path class="st11" d="M988.7,1156.95c2.47,34.79-14.2,64.73-37.23,66.92c-23.08,2.21-43.74-24.21-46.17-58.97
								c-2.46-34.81,14.18-64.78,37.24-66.97C965.58,1095.74,986.23,1122.16,988.7,1156.95z"/>
							<path d="M967.38,1173.31c1.35,18.68-7.59,34.77-19.97,35.95c-12.32,1.18-23.47-13.01-24.81-31.66
								c-1.33-18.7,7.66-34.79,20.01-35.97C954.98,1140.46,966.08,1154.66,967.38,1173.31z"/>
							<path class="st8" d="M974.17,1129.31c0.76,10.4-4.25,19.39-11.14,20.04c-6.89,0.64-13.08-7.26-13.8-17.66
								c-0.76-10.4,4.24-19.39,11.12-20.04C967.27,1111,973.45,1118.9,974.17,1129.31z"/>
							<path class="st8" d="M976.24,1168.21c0.38,5.22-2.13,9.72-5.6,10.04c-3.42,0.32-6.52-3.65-6.89-8.87
								c-0.38-5.17,2.13-9.67,5.58-10C972.77,1159.05,975.87,1162.99,976.24,1168.21z"/>
						</g>
					</g>
				</g>
				<path d="M961.47,917.81c-10.53-12.78-28.15-11.16-40.84-2.22c-14,9.86-21.4,30.92-20.23,47.49c0.08,1.29,1.45,1.23,2.12,0.46
					l0.02,0.01c7.83-9.7,11.16-23.94,20.35-32.31c10.85-9.86,21.68-4.27,34.45-5.19C960.55,925.82,963.75,920.57,961.47,917.81z"/>
				<path d="M1253.08,836.12c-14.58-19.5-38.62-25.69-60.01-12.63c-14.65,8.95-36.73,33.45-31.61,52.5
					c0.48,1.78,2.53,0.84,3.18-0.21c0.59-0.95,0.64-0.92,0.76-1.91c0.05-0.49-0.21-0.77-0.54-0.89c1.91-1.52,5.58-5.03,5.91-5.47
					c2.32-3.21,4.39-6.61,6.7-9.83c5.59-7.78,11.24-14.92,19.69-19.77c8.92-5.12,19.2-5.41,28.38-1.02
					c8.54,4.08,14.24,7.46,23.87,6.55C1252.35,843.15,1254.99,838.67,1253.08,836.12z"/>
			</g>
		</g>
		<path class="st12" d="M931.86,1437.97c0,0-4.49,38.98,9,37.47c13.49-1.49,6-40.47,17.99-40.47c11.99,0,9,118.43,62.97,124.43
			c43.47,3,7.5-104.94-37.48-145.42C939.36,1373.51,933.36,1413.99,931.86,1437.97z"/>
		<path class="st12" d="M1197.22,1330.04c0,0-1.51,83.94,46.46,121.42c29.98,23.99,40.47-29.98,18-97.44
			c-22.49-67.46-74.96-103.44-91.45-68.96c-16.49,34.48-7.49,98.94,4.5,61.46C1186.72,1309.05,1198.7,1310.55,1197.22,1330.04z"/>
		<path class="st6" d="M807.8,1504.63c0,0-26.54-156.3,199.06-247.72C903.64,1267.24,747.34,1398.48,807.8,1504.63z"/>
		<g class="st13">
			<path class="st6" d="M1350.45,1560.87c-27.76,26.99-58.67,49.67-91.42,69.86c-11.67,10.86-15.77,31.67-17.79,47.02
				c6.11-18.1,18.38-43.18,41-51.21c36.74-13.04,37.93,32,15.41,79.4c-22.51,47.41-57.15,46.04-59.39,12.95
				c0.3,8.23,3.21,15.03,4.64,22.83c15.5,12.38,32.78,19.2,49.17-2.03c13.07-16.94,22.75-37.4,33.03-56.16
				c12.18-22.23,18.86-44.96,26.09-69.02c5.76-19.18,13.82-37.28,20.61-56.07c4.94-13.65,10.67-27.28,17.32-40.47
				C1376.8,1532.78,1364.25,1547.44,1350.45,1560.87z"/>
		</g>
		<g>
			<path class="st4" d="M1366.61,1637.35c-28.48,62.97-47.97,115.44-92.95,127.43c-44.96,11.99-67.45-26.99-67.45-26.99
				c-11.99-17.99-32.98,19.49,5.49,44.44c38.47,24.94,111.44-0.96,163.91-56.43C1428.07,1670.34,1395.1,1574.39,1366.61,1637.35z"/>
			<path class="st12" d="M1557,1385.41c-1.5-9.94-5.48-16.73-11.86-24.36c-13.04-15.65-25.74-31.85-40.65-45.81
				c-31.28-29.27-65.1-55.23-104.87-71.81c-37.89-15.79-75.33-29.95-115.01-40.68c-38.24-10.33-75.56-10.93-114.45-6.7
				c71.94,4.42,199.91,28.76,226.83,144.15c37.92,162.51-84.86,166.12-191.4,204.04c-106.53,37.93-162.5,61.4-220.28,95.7
				c-57.78,34.31-155.29,41.53-131.82-10.84c14.46-32.23-3.96-48.73-29.08-65.5c2.97,5.15,5.91,10.28,8.73,15.43
				c7.22,13.2,15.6,26.96,13.36,42.72c-0.94,6.62-2.84,11.68-7.03,16.91c-6.22,7.77-18.82,16.98-6.04,26.6
				c32.98,24.85,85.98,21.29,124.02,12.29c40.82-9.67,75.08-30.97,110.87-51.9c33.58-19.63,67.13-34.93,104.49-45.89
				c41.31-12.1,82.85-23.9,122.28-41.46c37.91-16.9,75.19-37.93,108.66-62.5c17.98-13.2,37.77-27.48,48.99-47.23
				c5.18-9.11,10.96-29.08,6.42-42.66c-5.65-1.69-10.78-5.04-11.76-10.43c14.4,15.68,44.9,2.52,63.63-13.7
				c-7.9,15.45-25.29,25.51-42.79,25.49c-1.56,0-3.26-0.15-4.99-0.43c8.59,22.94-5.01,50.7-22.75,67.76
				c-1.79,1.72-3.61,3.41-5.44,5.09c-4.19,6.66-8.91,13.13-13.88,19.48c-8.43,12.05-17.05,23.99-24.22,36.92
				c-11.1,19.99-16.82,42.05-26.89,62.41c-11.13,22.48-15.38,46.7-23.75,70.11c-7.32,20.47-17.71,38.88-28.09,57.88
				c-8.76,16.08-16.23,38-32.69,48.02c-16.21,9.86-30.79,8.55-46.04-2.75c-9.53-7.07-16.43-16.24-25.29-24.06
				c-9.47-8.35-19.64-14.75-30.67-20.89c-14.16-7.86-30.66-14.53-47.2-15.26c-8.63,3.2-17.41,6.13-26.25,8.9
				c8.32-0.25,16.6-1.92,24.45,2.79c8.57,5.13,15.86,13.94,20.85,22.56c12.42,21.45,12.2,43.32,14.72,67.13
				c2.35,22.2,12.81,39.64,30.87,47.75c-3.36-13.38-3.04-24.44,8.4-22.02c26.68,5.61,113.69,9.82,186.68-67.36
				c24.85-26.92,44.34-40.8,50.04-10.78c19.06-21.98,32.09-51.3,32.97-80.7c0.82-27.31-3.92-55.89-8.47-83.07
				c0.12-1.12,0.24-2.25,0.36-3.38c0.17-1.58,0.56-3.3,1.05-5.15c4.62,20.59,9.71,42.89,12.31,65.33c0.55-5.6,0.93-11.21,0.81-16.89
				c-0.33-14.26-1.34-28.51,0.57-42.73c4.43-33.08,19.29-67.14,33.59-97.09c12.92-27.08,27.33-53.29,41.68-79.52
				C1558.8,1393.75,1557.66,1389.76,1557,1385.41z M1375.61,1725.81c-52.47,55.47-125.44,81.37-163.91,56.43
				c-38.48-24.95-17.49-62.43-5.49-44.44c0,0,22.49,38.98,67.45,26.99c44.98-11.99,64.47-64.47,92.95-127.43
				C1395.1,1574.39,1428.07,1670.34,1375.61,1725.81z"/>
		</g>
		<g>
			<path class="st14" d="M1323.84,1532.64c-36.05,18.75-74.25,32.74-113.37,43.42c-39.46,10.77-80.07,23.39-115.43,44.25
				c-29.61,17.49-57.31,40.05-88.58,54.84c3.81,2.58,7.77,4.98,11.83,7.15c28.17-22.14,84.84-62.86,140.34-79.93
				c78.09-24.03,130.95-37.24,135.75-19.23c3.97,14.88-89.57,69.92-185.88,103.52c3.57-0.98,7.2-1.98,10.91-2.97
				c43.87-11.62,87.35-29.82,127.05-51.9c40.78-22.67,79.1-50.55,111.2-84.58c14.47-15.35,27.96-31.7,41.31-48.04
				c0.66-0.8,1.31-1.65,1.97-2.46c4.23-6.88,8.78-13.52,13.66-19.92C1386.51,1498.55,1355.03,1516.42,1323.84,1532.64z"/>
		</g>
		<path class="st6" d="M1198.87,1755.77c0,0,30.06,54.11,129.28,0C1325.14,1794.85,1204.88,1820.4,1198.87,1755.77z"/>
		<path class="st6" d="M1204.88,1829.43c0,0,85.69,30.06,204.44-63.14C1425.86,1754.27,1313.11,1888.05,1204.88,1829.43z"/>
		<path class="st6" d="M986.04,1350.13c0,0-58.92-58.41-79.55,72C901.58,1454.94,898.64,1256.52,986.04,1350.13z"/>
		<path class="st6" d="M1226.83,1240.58c0,0-70.17-44.96-91.47,85.45C1130.28,1358.84,1136.57,1146.97,1226.83,1240.58z"/>
		<path class="st6" d="M1260.37,1694.85c-1.92,12.83-7.68,22.59-12.88,21.82c-5.18-0.77-7.84-11.8-5.92-24.63
			c1.91-12.83,7.68-22.6,12.87-21.82C1259.64,1670.99,1262.29,1682.02,1260.37,1694.85z"/>
		<g>
			<path class="st14" d="M1018.11,1043.83c-0.21,74.1-22.19,153.48-81.7,135.64c-46.9-14.07-44.43-77.82-31.4-135.43
				c-0.78,2.15-1.54,4.3-2.31,6.47c-9.8,27.63-14.11,55.78-13.25,85.19c0.76,25.42,7.21,65.09,30.92,79.98
				c28.12,17.68,57.31-1.35,73.39-25.87c16.4-25.02,22.14-52.29,24.72-81.64C1020.42,1086.09,1021.2,1065.09,1018.11,1043.83z"/>
		</g>
		<g>
			<path class="st14" d="M1356.05,1080.98c-4.88-36.1-10.39-75.54-27.44-108.24c-2.62-5.01-5.94-11.4-9.86-18.54
				c35.39,85.34,27.54,166.65-50.54,165.85c-79.31-0.81-89.08-129.57-88.4-201.1c-7.17,22.73-7.93,48.53-6.83,70.86
				c1.93,39.3,13.48,77.24,31.51,112.11c14.95,28.91,47.59,59.03,82.22,57.11c18.86-1.05,43.16-7.07,55.39-22.87
				c0.62-0.78,1.2-1.6,1.77-2.4c2.05-8.21,5.98-16.09,10.7-23.87C1356.85,1100.48,1357.33,1090.59,1356.05,1080.98z"/>
		</g>
		<g class="st15">
			<path class="st16" d="M1309.89,726.47c19.29-60.99,45.14-113.91,60.78-143.35c-0.21,0.11-0.42,0.19-0.64,0.32
				c-13.54,7.99-26.01,23.3-36.94,34.56c-11.44,11.8-22.01,24.25-32.81,36.63c-10.87,12.46-21.23,25.36-31.05,38.66
				c-1.55,2.12-3.06,4.23-4.55,6.36c-0.19,0.54-0.41,1.1-0.67,1.69c-0.18,0.39-0.63,0.76-1.12,0.92c-3.19,4.68-6.25,9.43-9.16,14.41
				c-3.26,5.59-8.16,10.44-10.32,16.66c6.5,0.31,12.86,1.5,17.95,3.02c10.16,3.06,33.53,11.12,31.99,24.83
				c-0.39,3.52-4.38,5.47-7.48,4.74c-3.27-0.78-6.63-1.56-10.04-2.24l0.03,0.23c0.01,0.07-0.07,0.17-0.13,0.11
				c6.92,7.06,17.66,17.52,29.4,23.68c10.13,5.31,20.46,6.12,31.37,8.67c6.65,1.58,36.34,1,37.88-7.17c0.42-2.24,0.51-4.4,0.46-6.51
				c-0.23,0.75-0.43,1.52-0.67,2.29c-0.94,2.84-5.25,3.31-4.79-0.33c0.27-2.23,0.56-4.47,0.85-6.71c-3.44,2.58-8.28,4.19-15.35,4.19
				C1328.83,782.11,1296.86,778.56,1309.89,726.47z"/>
		</g>
		<g>
			<path class="st4" d="M887.91,820.14c1.88,1.57,3.68,2.27,5.53,2.43c-2.04-5.2-4.45-10.58-7.2-16.1
				C884.41,811.87,884.17,817.03,887.91,820.14z"/>
			<path class="st17" d="M913.42,849.38c1.23-14.14,6.06-26.1,10.45-38.79c-7.94,2.84-14.65,7.35-22.82,10.44
				c-2.8,1.06-5.25,1.74-7.62,1.53c14.12,35.94,10.75,63.07-14.82,68.16c5.08,4.5,11.15,5.6,18.66,4.67
				c2.97-0.37,7.5-1.06,10.96-2.88c3.33-0.51,6.39-1.26,8.56-2.35C912.16,877.39,912.28,862.35,913.42,849.38z"/>
			<path class="st18" d="M886.24,806.47c2.58-7.67,8.4-15.86,10.91-19.5c5.63-8.18,12.49-15.7,20.03-22.5
				c-7.19-6.88-15.94-13.01-20.61-16.99c-11.9-10.09-26.46-17.8-40.36-24.74c-11.77-5.89-24.52-11.06-35.7-17.99
				c-3.06-1.89-8.76-4.88-10.72-2.09c21.76,23.44,50.65,57.59,70.4,92.47C882.36,798.96,884.38,802.75,886.24,806.47z"/>
		</g>
		<path class="st2" d="M1375.94,602.06c0,0,0,56.78-13.78,151.67C1356.47,780.48,1393.78,690.46,1375.94,602.06z"/>
		<path class="st2" d="M817.03,729.13c0,0,22.71,71.46,52.13,126.95C877.56,875.41,829.64,825.81,817.03,729.13z"/>
		<path class="st5" d="M1654.25,1834.52c-0.01,0.23-0.01,0.46-0.01,0.7c25.6,44.6,52.75,88.37,74.39,135.09
			c4.52,9.76,8.93,19.66,13.02,29.7h51.37c-11.15-17.17-22.07-34.49-31.67-52.69c-22.66-42.97-42.84-86.92-61.9-131.58
			c-14.74-34.56-29.53-69.13-46.51-102.64C1654.92,1753.44,1654.63,1793.95,1654.25,1834.52z"/>
		<g>
			<path class="st5" d="M2000,1026.54c-0.08,0.01-0.16,0.02-0.24,0.03c-12.07,1.2-24.46,2.86-36.99,4.43
				c12.38,1.58,24.8,2.86,37.23,3.99V1026.54z"/>
			<path class="st5" d="M1513.66,1477.79c17.76,13.86,34.25,29,49.64,45.91c26.73,29.35,42.28,66.3,60.89,100.87
				c17.85,33.2,33.22,67.73,48.56,102.18c9.16,20.59,12.97,43.39,23.93,63.08c10.2,18.31,17.69,37.18,26.34,56.21
				c18.09,39.79,38.79,78.21,58.42,117.21c6.29,12.48,13.28,24.77,20.89,36.75H2000v-0.01c-65.03-74.61-136-215.18-227.05-421.53
				c-108.18-245.23-49.73-305.97-42.52-428.59c5.75-97.85,101.17-87.74,269.57-70.5v-29.06c-34.49-3.36-68.81-8.25-102.88-14.59
				c-7.41-0.18-14.76-0.71-22-1.72c-5.5-0.77-10.82-3.24-16.05-5.91c-16.96-3.7-33.85-7.72-50.65-12.1
				c-66.21-17.21-130.25-40.66-195.43-61.23c-23.35-7.37-47.39-16.03-69.77-26.96c1.68,1.04,3.4,2.01,5.25,2.88
				c0.18,0.08,0.02,0.37-0.16,0.31c-4.17-1.44-8.4-3.29-12.6-5.36c3.32,24.63,14.38,49.31,26.31,70.5
				c6.4,11.37,13.47,22.96,22.75,32.24c9.15,9.15,19.57,17.03,28.83,26.11c11.54,11.32,22.42,23.87,28.94,38.83
				c7.35,16.83,9.46,34.45,10.07,52.65c1.5,44.55,0.52,92.83-15.77,134.9C1608.56,1353.88,1555.25,1412.36,1513.66,1477.79z"/>
		</g>
		<g>
			<path class="st6" d="M555.8,915.34c45.64-6.24,109.75-9.73,146.89,11.35c28.63,16.25,22.35,35.34-1.43,52.54
				c42.81-13.34,80.4-34.55,106.21-57.91C729.35,853.99,625.09,882.77,555.8,915.34z"/>
		</g>
		<g>
			<path class="st6" d="M1619.07,800.59c11.92-31.3,104.13-44.76,164.59-50.27c-92.27-6.29-219.88-0.2-278.32,70.18
				c83.82,47.87,118.08,85.02,223.22,47.2C1647.14,874.55,1606.09,834.66,1619.07,800.59z"/>
		</g>
		<g>
			<path class="st5" d="M1288.05,756.79c-4.79-11.3-19.26-14.53-30.02-17.02c-10.27-2.38-21.56-4.91-32.44-4.5
				c5.09-1.63,10.88-2.19,16.63-2c1.88-7.83,7.68-14.02,10.8-21.49c0.94-2.26,2.07-4.45,3.27-6.59c1.18-1.82,2.31-3.66,3.37-5.56
				l0.02-0.03l0,0c0.47-0.85,0.94-1.71,1.38-2.58c0.26-0.53,0.17-1.37-0.48-1.55c-7.46-2.06-15.21,0.33-22.44,2.31
				c-9.43,2.57-18.66,5.25-27.7,9.01c-10.22,4.25-19.92,9.69-28.85,16.2c4.64-5.48,8.95-11.31,14.99-15.4
				c1.97-1.34,3.96-2.65,5.98-3.94c-34.58-14.36-72.4-21.89-109.92-20.37c76.02,1.09,90.61,28.26,77.23,47.45
				c19-10.69,62.96-27.32,62.36-15.43c-0.59,11.88-49.89,25.53-49.89,25.53s53.46-1.78,52.87,3.57s-7.72,10.09-33.27,4.76
				c43.95,28.5,30.29,50.48-2.37,17.22c0,31.48-41.58,70.67-37.42,59.39c4.16-11.28,19.6-62.95,5.35-39.2
				c-14.26,23.75-61.77,58.2-101.56,82.56c-39.79,24.35-29.69,0.59-20.79-32.07c8.92-32.67-20.19,1.78-52.85,24.95
				c-32.67,23.16-18.42-17.23,5.93-52.87c-42.16,26.73-68.89,68.31-68.3,51.67c-1.18-27.92,15.44-71.27,39.2-81.37
				c-28.52,3.56-58.8,21.98-52.85,7.13c5.93-14.84,30.88-36.82,71.86-53.45c-18.2-5.23-27.61-14.36-32.19-24
				c-0.97,8.99,0.95,16.86,5.89,24.73c0.45,0.71,0.79,1.5,1.07,2.32c0.52-0.15,1.04-0.36,1.56-0.5c6.51-1.75,12.73-0.89,18.98-1.29
				c-20.18,6.7-39.17,15.62-55.39,30.11c-7.89,7.05-15.55,14.74-22.24,22.95c-5.66,6.94-11.04,15.63-9.49,24.92
				c0.09,0.52,0.73,0.74,1.16,0.59c12.46-4.45,25.06-7.99,38.03-10.07c0.01,0.85-0.13,1.73-0.5,2.52
				c-2.99,6.29-6.65,11.29-8.78,18.15c-2.56,8.3-5.04,16.76-6.13,25.4c-1.45,11.46-1.52,22.41,0.2,33.83
				c0.05,0.39,0.53,2.32,1.23,4.61c0.14,0.14,0.2,0.34,0.19,0.61c1.78,5.64,4.72,12.86,6.04,5.78c4.5-23.89,26.97-40.16,43.03-56.15
				c1.99-1.99,5.29-0.74,3.94,2.24c-5.8,12.92-8.01,25.87-11.9,39.28c-1.39,4.77-5.68,12.59,1.35,8.72
				c5.18-2.84,10.21-5.91,15.57-8.39c11.88-5.48,23.38-11.66,34.81-17.98c0.02-0.01,0.03-0.01,0.03-0.01
				c7.97-3.71,15.34-9.16,23.49-12.48c-3.79,7.99-6.73,16.36-8.51,25.06c-1.13,5.48-4.54,16.87,0.6,21.27
				c3.5,2.99,9.75,0.99,13.49-0.26c8.06-2.67,15.55-7.24,22.71-11.68c14.21-8.78,27.77-18.78,41.53-28.25
				c18.86-12.99,37.58-27.56,51.81-45.71c0.27,0.26,0.4,0.7,0.2,1.23c-3.72,9.98-6.77,20.16-10.26,30.2
				c-2.31,4.88-4.78,9.68-7.06,14.56c-0.27,0.6-0.1,1.69,0.78,1.6c5.47-0.64,9.89-4.61,14.13-7.84
				c8.21-6.24,15.61-12.98,22.75-20.45c10.9-11.43,19.96-24.23,29.24-36.9c4.06,2.71,8.66,4.63,13.22,6.49
				c10.49,4.31,20.16,9.45,29.53,15.88c0.96,0.65,1.98-0.6,2-1.48c0.05-1.52,0.02-3.04-0.05-4.55c0.49-5.18-0.66-12.52-0.4-11.19
				c-1.14-5.75-2.11-12.26-5.03-17.41c-2.8-4.93-9.07-10.31-10.04-15.8c-0.11-0.58,0.16-1.16,0.72-1.42
				c6.26-2.92,13.72-3.28,20.54-3.78c0.09-0.01,0.18-0.02,0.26-0.03c8.93,0.19,17.99,1.94,26.68,0.12
				C1287.64,758.54,1288.35,757.49,1288.05,756.79z"/>
		</g>
		<path class="st3" d="M1032.81,706.43c0,0-21.14,29.56-56.54,1.33c0,0-0.63,17.72,31.88,22.2c-42.59,5.6-63.89,40.36-63.89,40.36
			s29.14-22.42,61.64-20.18c-43.72,19.06-54.92,75.1-54.92,75.1s31.39-29.14,76.22-43.72c-42.59,45.96-34.75,65.02-34.75,65.02
			s61.65-52.69,72.86-65.02c11.21-12.33,0,37-8.97,53.8c-8.97,16.82,66.13-14.57,81.83-63.89c2.24-23.54,39.23-22.42,43.72,5.6
			c5.6,20.19,17.93-35.86-32.51-31.38c0,0,22.42-12.32,3.36-38.11c-10.09,37-49.32,77.34-48.21,43.72
			c1.13-33.62-39.23,16.81-26.9-12.33C1089.98,709.79,991.34,766.96,1032.81,706.43z"/>
		<path class="st6" d="M1039.2,1237.46c0,0,49.03-21.8,56.65-13.07C1103.48,1233.1,1020.67,1253.81,1039.2,1237.46z"/>
	</g>
</g>
</svg>
